<svg width="186" height="68" xmlns="http://www.w3.org/2000/svg" xmlns:xlink="http://www.w3.org/1999/xlink" xml:space="preserve" overflow="hidden"><defs><clipPath id="clip0"><rect x="455" y="930" width="186" height="68"/></clipPath></defs><g clip-path="url(#clip0)" transform="translate(-455 -930)"><path d="M156.569 18.6796 152.837 23.8228 154.401 24.6944 159.191 19.8753 156.569 18.6796ZM68.1471 26.1639 67.6429 27.2659 57.2412 50.8788 60.1226 50.8788 62.9751 44.1795 73.0599 44.1795 75.8477 50.8788 78.765 50.8788 68.6297 27.2659 68.1471 26.1639ZM14.0209 26.7835C6.34498 26.7832 1.54461 32.5164 1.54461 39.1659 1.54461 45.8161 6.3819 51.3541 14.0209 51.3541 16.501 51.3541 18.9778 50.521 20.9938 49.0635L20.9938 45.9012C19.1255 47.7692 16.5808 48.9771 13.9344 48.9771 8.19739 48.9771 4.41156 44.2403 4.41156 39.0723 4.41156 33.9041 8.1289 29.1676 13.8768 29.1676 16.5856 29.1676 19.1255 30.3137 20.9938 32.2435L20.9938 29.0812C18.9169 27.5305 16.6258 26.7835 14.0209 26.7835ZM31.3595 27.2659 31.3595 50.8788 33.9958 50.8788 33.9958 39.2886 42.006 39.2886 42.006 36.8465 33.9958 36.8465 33.9958 27.2659 31.3595 27.2659ZM45.6006 27.2659 45.6006 50.8788 48.2297 50.8788 48.2297 27.2659 45.6006 27.2659ZM87.4019 27.2659 87.4019 50.8788 90.0311 50.8788 90.0311 40.513 93.5823 40.513 98.9416 50.8788 101.996 50.8788 96.2548 40.153C98.6991 39.4338 101.088 37.5528 101.088 33.7923 101.088 29.0378 97.5258 27.2659 93.6399 27.2659L87.4019 27.2659ZM112.887 27.2659 112.887 50.8788 115.517 50.8788 115.517 27.2659 112.887 27.2659ZM125.45 27.2659 125.45 29.7079 131.155 29.7079 131.155 50.8788 133.784 50.8788 133.784 29.7079 139.547 29.7079 139.547 27.2659 125.45 27.2659ZM149.063 27.2659 149.063 50.8788 161.842 50.8788 161.842 48.4367 151.692 48.4367 151.692 39.1659 160.401 39.1659 160.401 36.7241 151.692 36.7241 151.692 29.7079 161.453 29.7079 161.453 27.2659 149.063 27.2659ZM90.0311 29.7079 93.2942 29.7079C96.0151 29.7079 98.452 30.7927 98.4518 33.7923 98.4518 36.7933 96.3634 38.1936 93.323 38.1936L90.0311 38.1936 90.0311 29.7079ZM68.0823 32.2723 72.0297 41.7303 64.0412 41.7303 68.0823 32.2723Z" fill-rule="evenodd" transform="matrix(1.00864 0 0 1 477.586 924.985)"/><path d="M-22.3923 39.0721C-22.3923 20.2621-7.23946 5.01483 11.9552 5.01483 20.3605 5.01471 28.054 8.05915 33.9933 13.1049L33.9933 18.3484C28.5118 12.5324 20.7364 8.9027 12.1135 8.9027-4.7083 8.9027-17.855 22.3623-17.855 38.9665-17.855 55.5708-4.702 69.0313 12.1135 69.0313 20.7364 69.0313 28.5118 65.4013 33.9933 59.5851L33.9933 65.0391C28.054 70.0854 20.3604 73.13 11.9552 73.13-7.22377 73.13-22.3923 57.8818-22.3923 39.0721L-22.3923 39.0721Z" fill="#878787" fill-rule="evenodd" transform="matrix(1.00864 0 0 1 477.586 924.985)"/><path d="M84.009 58.0174C83.7138 58.0174 83.4687 58.2624 83.4687 58.5574 83.4687 58.8447 83.714 59.0906 84.009 59.0906 84.2963 59.0906 84.542 58.8447 84.542 58.5574 84.542 58.2624 84.2963 58.0174 84.009 58.0174ZM85.565 58.0174C85.5281 58.0174 85.4919 58.0171 85.4569 58.0245 85.2118 58.0759 85.0247 58.2993 85.0247 58.5574 85.0247 58.8447 85.2697 59.0906 85.565 59.0906 85.852 59.0906 86.0979 58.8447 86.0979 58.5574 86.0979 58.2624 85.8522 58.0171 85.565 58.0171ZM71.8209 59.3642C71.628 59.3642 71.4473 59.3817 71.2734 59.4219 71.2154 59.4352 71.1559 59.4548 71.1006 59.4723 71.0452 59.4899 70.9943 59.5083 70.942 59.53 70.8899 59.5516 70.8396 59.5763 70.7908 59.6021 70.3012 59.8598 69.984 60.3172 69.984 60.9202 69.984 61.3563 70.0875 61.6546 70.3081 61.8855 70.3397 61.9185 70.3729 61.9489 70.409 61.9791 70.4812 62.0397 70.563 62.1001 70.6538 62.152 70.7447 62.2039 70.847 62.2497 70.9565 62.2961 71.1755 62.3887 71.432 62.4749 71.7273 62.5625 71.844 62.5976 71.9532 62.6301 72.0514 62.6635 72.7393 62.8977 72.9877 63.1077 72.9877 63.4846 72.9877 63.8914 72.7747 64.1466 72.3396 64.2482 72.2669 64.2651 72.187 64.2757 72.1019 64.2842 72.0168 64.2927 71.9258 64.2987 71.8281 64.2987 71.302 64.2987 70.7555 64.0429 70.3802 63.636L69.7823 64.2194C70.1942 64.701 70.782 65.0306 71.468 65.1055 71.566 65.1161 71.6688 65.1198 71.7704 65.1198 73.1977 65.1198 73.8307 64.432 73.8307 63.4269 73.8307 63.1155 73.7689 62.868 73.6433 62.6635 73.6182 62.6225 73.5866 62.5858 73.5569 62.5482 73.2593 62.1725 72.7323 61.9579 72.0443 61.7486 71.8029 61.6769 71.6058 61.6115 71.4463 61.5469 71.3666 61.5146 71.2995 61.4782 71.2375 61.4462 70.927 61.2855 70.8267 61.1212 70.8267 60.8771 70.8267 60.8303 70.8323 60.7849 70.8412 60.7401 70.8502 60.6957 70.859 60.6519 70.8772 60.6106 70.9865 60.3626 71.2658 60.1855 71.7561 60.1855 72.2377 60.1855 72.6042 60.3148 72.923 60.5889 72.9686 60.6281 73.0161 60.6738 73.0599 60.7185L73.6505 60.1208C73.156 59.6422 72.5786 59.3642 71.8209 59.3642ZM95.023 59.3642C93.9942 59.3642 93.1861 59.9553 93.1861 60.9202 93.1861 61.9171 93.7489 62.2117 94.9294 62.5625 95.8625 62.8419 96.19 63.054 96.19 63.4846 96.19 63.8914 95.9768 64.1466 95.5416 64.2482 95.4692 64.2651 95.389 64.2757 95.304 64.2842 95.2189 64.2927 95.1279 64.2987 95.0301 64.2987 94.5034 64.2987 93.9566 64.0429 93.5823 63.636L92.9844 64.2194C93.3963 64.701 93.9843 65.0306 94.6701 65.1055 94.768 65.1161 94.8708 65.1198 94.9725 65.1198 96.4 65.1198 97.0328 64.432 97.0328 63.4269 97.0328 63.1155 96.9712 62.868 96.8454 62.6635 96.8202 62.6225 96.7889 62.5858 96.7589 62.5482 96.4613 62.1725 95.9339 61.9579 95.2463 61.7486 95.005 61.6769 94.8081 61.6115 94.6484 61.5469 94.5686 61.5146 94.5016 61.4782 94.4396 61.4462 94.1291 61.2855 94.029 61.1212 94.029 60.8771 94.029 60.8303 94.0346 60.7849 94.0433 60.7401 94.0523 60.6957 94.0613 60.6519 94.0793 60.6106 94.1885 60.3626 94.4674 60.1855 94.9582 60.1855 95.4397 60.1855 95.806 60.3148 96.125 60.5889 96.1707 60.6281 96.2182 60.6738 96.262 60.7185L96.8528 60.1208C96.3583 59.6422 95.7804 59.3642 95.023 59.3642ZM39.6362 59.4507 39.6362 62.6852C39.6362 64.2245 40.3526 65.1198 41.7324 65.1198 43.1201 65.1198 43.8789 64.2699 43.8789 62.7066L43.8789 59.4507 43.0362 59.4507 43.0362 62.7211C43.0362 63.7421 42.6245 64.2842 41.7467 64.2842 40.9093 64.2842 40.4718 63.7162 40.4718 62.6635L40.4718 59.4507 39.6362 59.4507ZM45.4205 59.4507 45.4205 65.0334 46.2345 65.0334 46.2345 62.1377C46.2345 61.8265 46.2273 61.0555 46.2273 60.8482 46.3149 60.9918 46.5095 61.3252 46.645 61.5326L48.8708 65.0334 49.6633 65.0334 49.6633 59.4507 48.8494 59.4507 48.8494 62.332C48.8494 62.6432 48.8636 63.4357 48.8636 63.6432 48.7839 63.4996 48.5391 63.0893 48.3955 62.858L46.2776 59.4507 45.4205 59.4507ZM51.2911 59.4507 51.2911 65.0334 52.1341 65.0334 52.1341 59.4507 51.2911 59.4507ZM53.409 59.4507 55.3467 65.0334 56.2328 65.0334 58.1416 59.4507 57.2484 59.4507 56.103 63.0021C56.0511 63.1655 55.9818 63.3725 55.923 63.5639 55.8642 63.7554 55.8174 63.9251 55.7934 64.0249 55.7455 63.8255 55.5873 63.3361 55.4836 63.0093L54.3166 59.4507 53.409 59.4507ZM59.3806 59.4507 59.3806 65.0334 63.0975 65.0334 63.0975 64.2194 60.2162 64.2194 60.2162 62.4547 61.8226 62.4547 61.8226 61.6405 60.2162 61.6405 60.2162 60.2648 62.9751 60.2648 62.9751 59.4507 59.3806 59.4507ZM64.423 59.4507 64.423 65.0334 65.2443 65.0334 65.2443 62.8219 66.5047 62.8219 67.6141 65.0334 68.5793 65.0334 67.4341 62.7499C68.192 62.5584 68.6657 62.0079 68.6657 61.1147 68.6657 59.9661 67.8458 59.4507 66.8721 59.4507L64.423 59.4507ZM75.264 59.4507 75.264 65.0334 76.0996 65.0334 76.0996 59.4507 75.264 59.4507ZM77.3748 59.4507 77.3748 60.272 79.0026 60.272 79.0026 65.0334 79.8382 65.0334 79.8382 60.272 81.4663 60.272 81.4663 59.4507 77.3748 59.4507ZM84.362 59.4507 82.3521 65.0334 83.2239 65.0334 83.685 63.7079 85.9179 63.7079 86.386 65.0334 87.2793 65.0334 85.248 59.4507 84.362 59.4507ZM88.1653 59.4507 88.1653 60.272 89.7934 60.272 89.7934 65.0334 90.629 65.0334 90.629 60.272 92.2569 60.272 92.2569 59.4507 88.1653 59.4507ZM98.423 59.4507 98.423 65.0334 99.2155 65.0334 99.2155 62.0801C99.2155 61.7449 99.2014 61.2599 99.1938 61.1004 99.2572 61.2599 99.4188 61.6601 99.5538 61.9791L100.894 65.1198 102.248 61.9791C102.384 61.6601 102.544 61.2599 102.608 61.1004 102.6 61.2599 102.594 61.7449 102.594 62.0801L102.594 65.0334 103.415 65.0334 103.415 59.4507 102.522 59.4507 101.297 62.4258C101.229 62.5893 101.155 62.7677 101.088 62.9371 101.021 63.1068 100.962 63.2681 100.923 63.3838 100.851 63.1524 100.669 62.7449 100.534 62.4258L99.2874 59.4507 98.423 59.4507ZM105 59.4507 105 65.0334 108.717 65.0334 108.717 64.2194 105.843 64.2194 105.843 62.4547 107.442 62.4547 107.442 61.6405 105.843 61.6405 105.843 60.2648 108.601 60.2648 108.601 59.4507 105 59.4507ZM110.042 59.4507 110.042 65.0334 111.569 65.0334C113.029 65.0334 114.285 64.2086 114.285 62.2384 114.285 60.2685 113.069 59.4507 111.569 59.4507L110.042 59.4507ZM115.632 59.4507 115.632 65.0334 116.475 65.0334 116.475 59.4507 115.632 59.4507ZM118.009 59.4507 118.009 60.2215 120.084 60.2215C120.411 60.2215 120.984 60.215 121.207 60.2072 121.064 60.3506 120.756 60.712 120.581 60.9275L117.85 64.2194 117.85 65.0334 122.093 65.0334 122.093 64.2625 119.896 64.2625C119.569 64.2625 118.996 64.269 118.772 64.2771 118.916 64.1335 119.224 63.772 119.399 63.5567L122.093 60.2648 122.093 59.4507 118.009 59.4507ZM123.57 59.4507 123.57 65.0334 124.406 65.0334 124.406 59.4507 123.57 59.4507ZM126.034 59.4507 126.034 65.0334 126.848 65.0334 126.848 62.1377C126.848 61.8265 126.841 61.0555 126.84 60.8482 126.929 60.9918 127.123 61.3252 127.258 61.5326L129.484 65.0334 130.276 65.0334 130.276 59.4507 129.462 59.4507 129.462 62.332C129.462 62.6432 129.477 63.4357 129.477 63.6432 129.397 63.4996 129.152 63.0893 129.009 62.858L126.891 59.4507 126.034 59.4507ZM134.152 59.4507 134.152 65.0334 136.37 65.0334C136.447 65.0334 136.522 65.0308 136.594 65.0262 137.676 64.958 138.287 64.3808 138.287 63.3191 138.287 62.5452 137.782 62.1347 137.343 62.0151 137.75 61.8157 138.056 61.4649 138.056 60.8987 138.056 59.9573 137.423 59.4507 136.45 59.4507L134.152 59.4507ZM139.677 59.4507 139.677 65.0334 143.394 65.0334 143.394 64.2194 140.512 64.2194 140.512 62.4547 142.119 62.4547 142.119 61.6405 140.512 61.6405 140.512 60.2648 143.271 60.2648 143.271 59.4507 139.677 59.4507ZM144.712 59.4507 144.712 65.0334 145.533 65.0334 145.533 62.8219 146.794 62.8219 147.903 65.0334 148.868 65.0334 147.73 62.7499C148.488 62.5584 148.955 62.0079 148.955 61.1147 148.955 59.9661 148.135 59.4507 147.161 59.4507L144.712 59.4507ZM150.388 59.4507 150.388 65.0334 154.004 65.0334 154.004 64.2123 151.224 64.2123 151.224 59.4507 150.388 59.4507ZM155.308 59.4507 155.308 65.0334 156.144 65.0334 156.144 59.4507 155.308 59.4507ZM157.772 59.4507 157.772 65.0334 158.586 65.0334 158.586 62.1377C158.586 61.8265 158.579 61.0555 158.579 60.8482 158.666 60.9918 158.854 61.3252 158.989 61.5326L161.215 65.0334 162.014 65.0334 162.014 59.4507 161.201 59.4507 161.201 62.332C161.201 62.6432 161.208 63.4357 161.208 63.6432 161.128 63.4996 160.89 63.0893 160.747 62.858L158.622 59.4507 157.772 59.4507ZM134.944 60.2143 136.443 60.2143C137.001 60.2143 137.221 60.5343 137.221 60.949 137.221 61.3159 136.993 61.6622 136.443 61.6622L134.944 61.6622 134.944 60.2143ZM65.2443 60.2432 66.8721 60.2432C67.4385 60.2432 67.8158 60.5613 67.8158 61.1435 67.8158 61.7498 67.4309 62.0367 66.8721 62.0367L65.2443 62.0367 65.2443 60.2432ZM145.533 60.2432 147.161 60.2432C147.727 60.2432 148.112 60.5613 148.112 61.1435 148.112 61.7498 147.72 62.0367 147.161 62.0367L145.533 62.0367 145.533 60.2432ZM110.885 60.2648 111.569 60.2648C112.893 60.2648 113.435 61.0661 113.435 62.2384 113.435 63.411 112.893 64.2194 111.569 64.2194L110.885 64.2194 110.885 60.2648ZM84.7942 60.3944C84.858 60.6336 85.0768 61.2777 85.2121 61.6767L85.6586 62.9588 83.9369 62.9588 84.3836 61.6838C84.5272 61.2689 84.7305 60.6336 84.7942 60.3944ZM134.944 62.4185 136.457 62.4185C137.087 62.4185 137.451 62.7663 137.451 63.3405 137.451 63.891 137.177 64.2699 136.435 64.2699L134.944 64.2699 134.944 62.4185Z" fill="#878787" fill-rule="evenodd" transform="matrix(1.00864 0 0 1 477.586 924.985)"/></g></svg>