<svg width="160" height="129" xmlns="http://www.w3.org/2000/svg" xmlns:xlink="http://www.w3.org/1999/xlink" xml:space="preserve" overflow="hidden"><g transform="translate(-54 -879)"><path d="M28.3718 61.1168C29.1891 60.9605 30.0165 60.8041 30.8446 60.6382L30.8677 60.6241C29.4854 58.3748 28.4118 55.9341 27.6769 53.371 26.5232 49.3459 26.2427 45.2215 26.8438 41.1129 27.3558 37.6185 28.4869 34.2736 30.2062 31.1725 32.1643 27.6402 34.7731 24.608 37.9605 22.1606 40.8652 19.9305 44.1389 18.2829 47.6915 17.2641L47.03 14.9572C43.1861 16.059 39.6431 17.8421 36.4986 20.2573 33.0487 22.9062 30.2254 26.1874 28.107 30.0092 26.2472 33.3648 25.0229 36.9835 24.4692 40.7658 23.8178 45.2142 24.1209 49.6784 25.37 54.0331 26.0829 56.5177 27.0927 58.8957 28.3718 61.1168Z" fill="#E50046" transform="matrix(1 0 0 1.00515 54 879.17)"/><path d="M104.218 109.417 112.984 109.417C113.059 108.991 113.084 108.54 113.084 108.014 113.084 103.932 110.304 101.227 106.372 101.227 102.064 101.227 99.4849 104.232 99.4849 108.339 99.4849 112.597 102.415 115.477 106.372 115.477 109.628 115.477 111.882 113.674 112.709 111.145L109.628 111.145C109.002 112.422 107.925 113.073 106.372 113.073 103.918 113.073 102.34 111.195 102.34 108.44 102.34 105.535 103.868 103.631 106.247 103.631 108.426 103.631 110.079 105.009 110.104 107.113L104.218 107.113C103.742 107.589 103.792 108.841 104.218 109.417ZM141.259 115.378C142.988 115.378 144.089 114.076 144.089 112.498L144.089 107.113C144.089 103.181 141.56 101.227 138.429 101.227 136.801 101.227 135.249 101.904 134.322 103.281L134.322 101.453 131.492 101.453 131.492 115.253 134.322 115.253 134.322 107.538C134.322 105.059 135.674 103.706 137.803 103.706 139.932 103.706 141.259 105.059 141.259 107.538L141.259 115.378ZM91.7955 115.378C93.5238 115.378 94.6256 114.076 94.6256 112.498L94.6256 107.989C94.6256 105.184 95.7776 104.307 98.032 104.307L98.7579 104.307 98.7579 101.227C96.8546 101.227 95.4519 102.053 94.6256 103.456L94.6256 101.452 91.7955 101.452 91.7955 115.378ZM63.7195 94.9157C62.0165 94.9157 60.8894 96.2179 60.8894 97.7961L60.8894 115.253 63.7195 115.253 63.7195 107.538C63.7195 105.059 65.0719 103.706 67.201 103.706 69.33 103.706 70.6571 105.059 70.6571 107.538L70.6571 115.253 73.4872 115.253 73.4872 107.113C73.4872 103.606 71.4586 101.227 68.0025 101.227 66.2245 101.227 64.6965 101.879 63.7195 103.056L63.7195 94.9157ZM121.95 112.998C119.646 112.998 117.943 111.32 117.943 108.34 117.943 105.585 119.52 103.706 122.025 103.706 124.705 103.706 126.182 105.81 126.182 108.34 126.182 111.346 124.154 112.998 121.95 112.998ZM121.95 115.478C125.932 115.478 129.113 112.648 129.113 108.34 129.113 104.107 126.107 101.227 122.075 101.227 118.068 101.227 115.037 104.032 115.037 108.34 115.037 112.698 118.093 115.478 121.95 115.478ZM80.55 109.417 89.3159 109.417C89.3909 108.991 89.4163 108.54 89.4163 108.014 89.4163 103.932 86.6365 101.227 82.7045 101.227 78.3967 101.227 75.8172 104.232 75.8172 108.339 75.8172 112.597 78.7472 115.477 82.7045 115.477 85.9603 115.477 88.2146 113.674 89.041 111.145L85.9603 111.145C85.3343 112.422 84.2573 113.073 82.7045 113.073 80.2498 113.073 78.6721 111.195 78.6721 108.44 78.6721 105.535 80.2001 103.631 82.5792 103.631 84.758 103.631 86.4112 105.009 86.4361 107.113L80.5506 107.113C80.0742 107.589 80.1245 108.841 80.55 109.417Z" fill="#00447E" transform="matrix(1 0 0 1.00515 54 879.17)"/><path d="M86.0173 92.606 86.0173 96.8822 85.3156 96.8822 85.3156 95.0122 83.304 95.0122 83.304 96.8822 82.6024 96.8822 82.6024 92.606 83.304 92.606 83.304 94.4399 85.3156 94.4399 85.3156 92.606 86.0173 92.606Z" fill="#00447E" transform="matrix(1 0 0 1.00515 54 879.17)"/><path d="M90.1145 95.4491 87.5243 95.4491C87.5446 95.7195 87.6451 95.9373 87.8257 96.101 88.0064 96.2653 88.2276 96.3477 88.4901 96.3477 88.8671 96.3477 89.1341 96.1897 89.2899 95.8736L90.0468 95.8736C89.9441 96.1857 89.7584 96.4408 89.4897 96.6395 89.221 96.8382 88.888 96.9375 88.4901 96.9375 88.1661 96.9375 87.876 96.8647 87.6197 96.7191 87.3634 96.5735 87.1625 96.3686 87.0169 96.1039 86.8713 95.8391 86.7984 95.5326 86.7984 95.1838 86.7984 94.8356 86.869 94.5285 87.0107 94.2638 87.1524 93.9996 87.351 93.7953 87.6073 93.6519 87.8635 93.5085 88.1582 93.4363 88.4901 93.4363 88.8101 93.4363 89.0952 93.5063 89.3452 93.6457 89.5953 93.7851 89.79 93.981 89.9294 94.2333 90.0688 94.485 90.1388 94.7757 90.1388 95.1037 90.1394 95.2318 90.1309 95.3464 90.1145 95.4491ZM89.4073 94.883C89.4034 94.6245 89.3108 94.4179 89.1302 94.2615 88.9495 94.1052 88.726 94.0278 88.4596 94.0278 88.2175 94.0278 88.0109 94.1046 87.8382 94.2581 87.6654 94.4117 87.5633 94.6205 87.5305 94.8824L89.4073 94.8824Z" fill="#00447E" transform="matrix(1 0 0 1.00515 54 879.17)"/><path d="M91.6222 92.3294 91.6222 96.8822 90.9206 96.8822 90.9206 92.3294 91.6222 92.3294Z" fill="#00447E" transform="matrix(1 0 0 1.00515 54 879.17)"/><path d="M97.4879 93.6034C97.6995 93.714 97.8655 93.8777 97.9863 94.0956 98.1071 94.3129 98.1675 94.5753 98.1675 94.883L98.1675 96.8828 97.4726 96.8828 97.4726 94.988C97.4726 94.6843 97.3964 94.4517 97.2452 94.2897 97.0933 94.1277 96.8862 94.0465 96.6237 94.0465 96.3612 94.0465 96.153 94.1277 95.9994 94.2897 95.8459 94.4517 95.7686 94.6843 95.7686 94.988L95.7686 96.8828 95.0738 96.8828 95.0738 94.988C95.0738 94.6843 94.9975 94.4517 94.8463 94.2897 94.6945 94.1277 94.4873 94.0465 94.2248 94.0465 93.9624 94.0465 93.7541 94.1277 93.6006 94.2897 93.447 94.4517 93.3697 94.6843 93.3697 94.988L93.3697 96.8828 92.6681 96.8828 92.6681 93.4927 93.3697 93.4927 93.3697 93.8805C93.4848 93.7411 93.6299 93.6327 93.8066 93.5543 93.9832 93.4764 94.1712 93.4374 94.3727 93.4374 94.6431 93.4374 94.8852 93.4956 95.0986 93.6101 95.3119 93.7247 95.4756 93.8912 95.5908 94.1086 95.6935 93.9037 95.8532 93.7405 96.0706 93.6197 96.2879 93.4984 96.5216 93.438 96.7722 93.438 97.038 93.4369 97.2768 93.4927 97.4879 93.6034Z" fill="#00447E" transform="matrix(1 0 0 1.00515 54 879.17)"/><path d="M101.567 93.6034C101.77 93.714 101.93 93.8777 102.047 94.0956 102.164 94.3129 102.222 94.5753 102.222 94.883L102.222 96.8828 101.528 96.8828 101.528 94.988C101.528 94.6843 101.451 94.4517 101.3 94.2897 101.148 94.1277 100.941 94.0465 100.679 94.0465 100.416 94.0465 100.208 94.1277 100.054 94.2897 99.9009 94.4517 99.8235 94.6843 99.8235 94.988L99.8235 96.8828 99.1219 96.8828 99.1219 92.33 99.8235 92.33 99.8235 93.8867C99.9426 93.7434 100.093 93.6327 100.276 93.5543 100.458 93.4764 100.658 93.4374 100.876 93.4374 101.133 93.4369 101.364 93.4927 101.567 93.6034Z" fill="#00447E" transform="matrix(1 0 0 1.00515 54 879.17)"/><path d="M103.779 96.7197C103.52 96.574 103.317 96.3691 103.17 96.1044 103.022 95.8397 102.948 95.5332 102.948 95.1844 102.948 94.8401 103.023 94.5347 103.175 94.2677 103.327 94.0007 103.534 93.7958 103.797 93.6525 104.059 93.5091 104.352 93.4369 104.677 93.4369 105.001 93.4369 105.294 93.5091 105.557 93.6525 105.819 93.7958 106.026 94.0007 106.178 94.2677 106.33 94.5347 106.406 94.8401 106.406 95.1844 106.406 95.5287 106.328 95.8346 106.172 96.101 106.016 96.368 105.804 96.574 105.535 96.7197 105.266 96.8653 104.97 96.9381 104.646 96.9381 104.327 96.9375 104.037 96.8647 103.779 96.7197ZM105.154 96.1998C105.312 96.114 105.44 95.9842 105.538 95.812 105.637 95.6393 105.686 95.4305 105.686 95.1844 105.686 94.9383 105.639 94.73 105.545 94.5601 105.45 94.3902 105.325 94.2621 105.169 94.1757 105.014 94.0894 104.845 94.0465 104.665 94.0465 104.484 94.0465 104.317 94.0894 104.164 94.1757 104.01 94.2615 103.888 94.3902 103.798 94.5601 103.707 94.7306 103.662 94.9389 103.662 95.1844 103.662 95.5496 103.755 95.8312 103.942 96.0305 104.129 96.2297 104.364 96.3285 104.647 96.3285 104.827 96.3285 104.996 96.2856 105.154 96.1998Z" fill="#00447E" transform="matrix(1 0 0 1.00515 54 879.17)"/><path d="M107.864 92.3294 107.864 96.8822 107.162 96.8822 107.162 92.3294 107.864 92.3294Z" fill="#00447E" transform="matrix(1 0 0 1.00515 54 879.17)"/><path d="M109.728 94.0645 109.728 95.9407C109.728 96.0683 109.758 96.1592 109.817 96.2145 109.876 96.2698 109.978 96.2969 110.122 96.2969L110.552 96.2969 110.552 96.8817 109.999 96.8817C109.683 96.8817 109.441 96.8077 109.273 96.6598 109.105 96.5119 109.021 96.2721 109.021 95.9402L109.021 94.064 108.621 94.064 108.621 93.4916 109.021 93.4916 109.021 92.6489 109.728 92.6489 109.728 93.4916 110.552 93.4916 110.552 94.064 109.728 94.064Z" fill="#00447E" transform="matrix(1 0 0 1.00515 54 879.17)"/><path d="M111.973 96.3104 113.511 96.3104 113.511 96.8828 111.161 96.8828 111.161 96.3104 112.705 94.0645 111.161 94.0645 111.161 93.4922 113.511 93.4922 113.511 94.0645 111.973 96.3104Z" fill="#00447E" transform="matrix(1 0 0 1.00515 54 879.17)"/><path d="M117.068 94.3597 117.068 94.9507 114.539 94.9507 114.539 94.3597 117.068 94.3597Z" fill="#00447E" transform="matrix(1 0 0 1.00515 54 879.17)"/><path d="M118.864 96.2738 120.851 96.2738 120.851 96.8828 118.034 96.8828 118.034 96.3347 120.015 93.2156 118.034 93.2156 118.034 92.6066 120.851 92.6066 120.851 93.1546 118.864 96.2738Z" fill="#00447E" transform="matrix(1 0 0 1.00515 54 879.17)"/><path d="M124.764 95.4491 122.174 95.4491C122.194 95.7195 122.295 95.9373 122.475 96.101 122.656 96.2653 122.877 96.3477 123.14 96.3477 123.517 96.3477 123.784 96.1897 123.939 95.8736L124.696 95.8736C124.594 96.1857 124.408 96.4408 124.139 96.6395 123.871 96.8382 123.538 96.9375 123.14 96.9375 122.816 96.9375 122.525 96.8647 122.269 96.7191 122.013 96.5735 121.812 96.3686 121.666 96.1039 121.521 95.8391 121.448 95.5326 121.448 95.1838 121.448 94.8356 121.518 94.5285 121.66 94.2638 121.802 93.9996 122.001 93.7953 122.257 93.6519 122.513 93.5085 122.808 93.4363 123.14 93.4363 123.46 93.4363 123.745 93.5063 123.995 93.6457 124.245 93.7851 124.439 93.981 124.579 94.2333 124.718 94.485 124.788 94.7757 124.788 95.1037 124.789 95.2318 124.78 95.3464 124.764 95.4491ZM124.057 94.883C124.053 94.6245 123.96 94.4179 123.78 94.2615 123.599 94.1052 123.376 94.0278 123.109 94.0278 122.867 94.0278 122.66 94.1046 122.488 94.2581 122.315 94.4117 122.213 94.6205 122.18 94.8824L124.057 94.8824Z" fill="#00447E" transform="matrix(1 0 0 1.00515 54 879.17)"/><path d="M127.997 93.6034C128.208 93.714 128.374 93.8777 128.492 94.0956 128.611 94.3129 128.671 94.5753 128.671 94.883L128.671 96.8828 127.976 96.8828 127.976 94.988C127.976 94.6843 127.9 94.4517 127.748 94.2897 127.596 94.1277 127.389 94.0465 127.127 94.0465 126.864 94.0465 126.656 94.1277 126.503 94.2897 126.349 94.4517 126.272 94.6843 126.272 94.988L126.272 96.8828 125.57 96.8828 125.57 93.4927 126.272 93.4927 126.272 93.8805C126.387 93.7411 126.533 93.6327 126.711 93.5543 126.89 93.4764 127.079 93.4374 127.28 93.4374 127.547 93.4369 127.786 93.4927 127.997 93.6034Z" fill="#00447E" transform="matrix(1 0 0 1.00515 54 879.17)"/><path d="M130.473 94.0645 130.473 95.9407C130.473 96.0683 130.503 96.1592 130.563 96.2145 130.622 96.2698 130.723 96.2969 130.867 96.2969L131.298 96.2969 131.298 96.8817 130.744 96.8817C130.428 96.8817 130.187 96.8077 130.018 96.6598 129.85 96.5119 129.766 96.2721 129.766 95.9402L129.766 94.064 129.367 94.064 129.367 93.4916 129.766 93.4916 129.766 92.6489 130.473 92.6489 130.473 93.4916 131.298 93.4916 131.298 94.064 130.473 94.064Z" fill="#00447E" transform="matrix(1 0 0 1.00515 54 879.17)"/><path d="M133.208 93.5819C133.378 93.4854 133.58 93.4369 133.814 93.4369L133.814 94.1627 133.635 94.1627C133.361 94.1627 133.153 94.2327 133.011 94.3721 132.87 94.5116 132.799 94.7537 132.799 95.098L132.799 96.8822 132.097 96.8822 132.097 93.4922 132.799 93.4922 132.799 93.9844C132.902 93.8122 133.038 93.6779 133.208 93.5819Z" fill="#00447E" transform="matrix(1 0 0 1.00515 54 879.17)"/><path d="M137.623 93.4927 137.623 96.8828 136.921 96.8828 136.921 96.4826C136.81 96.622 136.665 96.7315 136.487 96.8117 136.309 96.8918 136.119 96.9319 135.918 96.9319 135.651 96.9319 135.412 96.8766 135.201 96.766 134.99 96.6553 134.824 96.4911 134.703 96.2738 134.582 96.0559 134.522 95.7934 134.522 95.4858L134.522 93.4927 135.216 93.4927 135.216 95.3814C135.216 95.685 135.292 95.9176 135.444 96.0796 135.596 96.2416 135.803 96.3229 136.065 96.3229 136.328 96.3229 136.536 96.2416 136.69 96.0796 136.843 95.9176 136.92 95.685 136.92 95.3814L136.92 93.4927 137.623 93.4927Z" fill="#00447E" transform="matrix(1 0 0 1.00515 54 879.17)"/><path d="M143.458 93.6034C143.67 93.714 143.835 93.8777 143.956 94.0956 144.077 94.3129 144.137 94.5753 144.137 94.883L144.137 96.8828 143.443 96.8828 143.443 94.988C143.443 94.6843 143.366 94.4517 143.215 94.2897 143.063 94.1277 142.856 94.0465 142.594 94.0465 142.331 94.0465 142.123 94.1277 141.969 94.2897 141.816 94.4517 141.739 94.6843 141.739 94.988L141.739 96.8828 141.044 96.8828 141.044 94.988C141.044 94.6843 140.968 94.4517 140.816 94.2897 140.664 94.1277 140.457 94.0465 140.195 94.0465 139.932 94.0465 139.724 94.1277 139.571 94.2897 139.417 94.4517 139.34 94.6843 139.34 94.988L139.34 96.8828 138.638 96.8828 138.638 93.4927 139.34 93.4927 139.34 93.8805C139.455 93.7411 139.6 93.6327 139.777 93.5543 139.953 93.4764 140.141 93.4374 140.343 93.4374 140.613 93.4374 140.855 93.4956 141.069 93.6101 141.282 93.7247 141.446 93.8912 141.561 94.1086 141.663 93.9037 141.823 93.7405 142.041 93.6197 142.258 93.4984 142.492 93.438 142.742 93.438 143.007 93.4369 143.247 93.4927 143.458 93.6034Z" fill="#00447E" transform="matrix(1 0 0 1.00515 54 879.17)"/><path d="M35.4132 31.1065C37.1551 28.615 39.3282 26.482 41.8716 24.7661 44.7841 22.8018 48.0008 21.5002 51.4321 20.8974 54.4287 20.3708 57.4694 20.399 60.4694 20.9826 63.9125 21.6521 67.1073 23.0056 69.9662 25.0065 72.4525 26.7473 74.5822 28.9176 76.2958 31.4576 78.2849 34.4068 79.5939 37.6653 80.186 41.1429 80.6635 43.9459 80.6505 46.7856 80.1589 49.5914 80.4089 49.723 80.6567 49.8556 80.9023 49.9888 81.4554 47.008 81.4825 43.9882 80.9745 41.008 80.3632 37.4181 79.0114 34.054 76.9585 31.01 75.1901 28.3881 72.9916 26.1479 70.4245 24.3512 67.473 22.2854 64.175 20.8878 60.6218 20.1969 57.5253 19.5952 54.387 19.5653 51.2932 20.1094 47.7508 20.732 44.4296 22.0754 41.4234 24.1029 38.7982 25.8735 36.5551 28.076 34.7567 30.6476 32.6948 33.5962 31.2995 36.8909 30.6098 40.4396L31.3955 40.5925C32.0649 37.1545 33.4162 33.9626 35.4132 31.1065Z" fill="#E50046" transform="matrix(1 0 0 1.00515 54 879.17)"/><path d="M68.791 62.016C69.7054 61.3014 70.5498 60.5168 71.3276 59.6741 70.6136 59.288 69.9413 58.8054 69.3571 58.2483 68.721 58.9161 68.0476 59.5511 67.3127 60.1251 66.8685 60.4722 66.4102 60.7928 65.9423 61.0965 66.5123 61.6869 67.1727 62.2226 67.8806 62.6882 68.1887 62.4726 68.4924 62.2491 68.791 62.016Z" fill="#E50046" transform="matrix(1 0 0 1.00515 54 879.17)"/><path d="M50.4026 63.3362C48.926 62.9016 47.5109 62.2903 46.1749 61.5001 44.6243 60.5834 43.2273 59.4568 42.0031 58.1433 41.8044 58.2884 41.6012 58.4301 41.3923 58.5672 41.3822 58.574 41.372 58.5813 41.3613 58.5881 41.1446 58.7298 40.9227 58.8681 40.6936 59.0007 40.4413 59.1469 40.1833 59.2841 39.9225 59.4173 39.9225 59.4173 39.9225 59.4173 39.9225 59.4173 41.3788 61.0536 43.0637 62.4478 44.9529 63.5659 46.6693 64.5814 48.5009 65.3338 50.4189 65.8277 50.2846 64.9827 50.275 64.1479 50.4026 63.3362Z" fill="#E50046" transform="matrix(1 0 0 1.00515 54 879.17)"/><path d="M55.7715 66.5129C55.8438 66.5129 55.916 66.5067 55.9883 66.5061 55.5017 65.7046 55.1439 64.8941 54.9175 64.0886 54.4287 64.0666 53.9388 64.0299 53.4489 63.9695 52.679 63.8753 51.9237 63.7302 51.1821 63.5456 51.0663 64.3511 51.0929 65.1831 51.2633 66.028 51.8865 66.1618 52.5164 66.273 53.1565 66.3515 54.0297 66.4593 54.9023 66.5129 55.7715 66.5129Z" fill="#E50046" transform="matrix(1 0 0 1.00515 54 879.17)"/><path d="M62.787 65.3033C64.3223 64.7626 65.7831 64.0508 67.1558 63.1703 66.492 62.7074 65.8717 62.1836 65.3236 61.6096 65.2965 61.5814 65.2745 61.552 65.248 61.5238 63.93 62.2993 62.5279 62.9084 61.0536 63.3424 61.3652 63.7928 61.7253 64.2399 62.1441 64.6785 62.3496 64.893 62.5658 65.1001 62.787 65.3033Z" fill="#E50046" transform="matrix(1 0 0 1.00515 54 879.17)"/><path d="M61.0508 65.839C61.3454 65.7628 61.6361 65.677 61.9257 65.5883 61.8043 65.4698 61.6824 65.3524 61.5661 65.2305 61.0474 64.6875 60.6071 64.1293 60.2391 63.5648 58.7682 63.9278 57.2684 64.1078 55.7574 64.1067 56.0058 64.8941 56.393 65.6888 56.9162 66.4757 58.3093 66.4006 59.691 66.1917 61.0508 65.839Z" fill="#E50046" transform="matrix(1 0 0 1.00515 54 879.17)"/><path d="M73.8574 56.3264C75.2093 54.1053 76.1242 51.6906 76.5888 49.1348 75.8465 48.7888 75.0908 48.4541 74.318 48.138 73.9432 50.6142 73.1045 52.9482 71.8074 55.0784 71.2475 55.9984 70.6079 56.8587 69.9046 57.6641 70.4804 58.2139 71.1583 58.688 71.8757 59.0566 72.6044 58.2015 73.2693 57.2927 73.8574 56.3264Z" fill="#E50046" transform="matrix(1 0 0 1.00515 54 879.17)"/><path d="M40.9758 56.945C40.96 56.9247 40.9425 56.9055 40.9267 56.8852 39.3253 54.8351 38.1846 52.5254 37.5361 50.0204 36.9451 47.7384 36.7921 45.3835 37.0822 43.0208 37.4074 40.3741 38.2636 37.8832 39.6273 35.6192 40.816 33.6454 42.3434 31.9227 44.1666 30.4986L42.6894 28.6071C40.6343 30.2124 38.9122 32.1552 37.5716 34.3808 36.0324 36.9355 35.0666 39.7442 34.7003 42.7278 34.3735 45.3909 34.5456 48.0471 35.2128 50.6216 35.9257 53.376 37.1703 55.9177 38.9048 58.1851 39.182 58.0462 39.4552 57.9023 39.7199 57.7488 39.9451 57.6184 40.1613 57.4858 40.3718 57.3509 40.5795 57.2182 40.781 57.0822 40.9758 56.945Z" fill="#E50046" transform="matrix(1 0 0 1.00515 54 879.17)"/><path d="M44.9534 63.5659C47.4708 65.0555 50.231 65.9925 53.1565 66.352 54.0297 66.4593 54.9023 66.5129 55.7715 66.5129 57.5524 66.5129 59.3196 66.2883 61.0508 65.8395 63.8758 65.108 66.4802 63.8216 68.7904 62.0165 70.8196 60.4305 72.5242 58.5164 73.8569 56.327 75.2087 54.1059 76.1237 51.6912 76.5882 49.1354 75.846 48.7894 75.0902 48.4547 74.3175 48.1386 73.9427 50.6148 73.1039 52.9488 71.8068 55.079 70.6249 57.0207 69.1133 58.7185 67.3127 60.1257 65.2632 61.727 62.9535 62.8677 60.4491 63.5168 58.1653 64.1078 55.8099 64.2602 53.4489 63.9701 50.853 63.6517 48.4056 62.8209 46.1749 61.5006 44.6243 60.584 43.2273 59.4574 42.0031 58.1439 41.8044 58.289 41.6012 58.4306 41.3923 58.5678 41.3822 58.5746 41.372 58.5819 41.3613 58.5887 41.1446 58.7304 40.9227 58.8686 40.6936 59.0013 40.4413 59.1475 40.1833 59.2846 39.9225 59.4178 39.9225 59.4178 39.9225 59.4178 39.9225 59.4178 41.3788 61.0536 43.0637 62.4483 44.9534 63.5659Z" fill="#E50046" transform="matrix(1 0 0 1.00515 54 879.17)"/><path d="M40.9758 56.945C40.96 56.9247 40.9425 56.9055 40.9267 56.8852 39.3253 54.8351 38.1846 52.5254 37.5361 50.0204 36.9451 47.7384 36.7921 45.3835 37.0822 43.0208 37.4074 40.3741 38.2636 37.8832 39.6273 35.6192 40.816 33.6454 42.3434 31.9227 44.1666 30.4986L42.6894 28.6071C40.6343 30.2124 38.9122 32.1552 37.5716 34.3808 36.0324 36.9355 35.0666 39.7442 34.7003 42.7278 34.3735 45.3909 34.5456 48.0471 35.2128 50.6216 35.9257 53.376 37.1703 55.9177 38.9048 58.1851 39.182 58.0462 39.4552 57.9023 39.7199 57.7488 39.9451 57.6184 40.1613 57.4858 40.3718 57.3509 40.5795 57.2182 40.781 57.0822 40.9758 56.945Z" fill="#E50046" transform="matrix(1 0 0 1.00515 54 879.17)"/><path d="M68.9733 46.3442C68.9107 46.1066 68.8469 45.8701 68.782 45.6353 68.725 45.4287 68.6691 45.2198 68.6132 45.0116 67.683 44.7767 66.7443 44.5758 65.7994 44.4144 65.9174 44.8445 66.0331 45.2785 66.1404 45.716 67.0943 45.8859 68.0386 46.0987 68.9733 46.3442Z" fill="#0092A6" transform="matrix(1 0 0 1.00515 54 879.17)"/><path d="M56.577 45.6037C57.1172 45.5088 57.6579 45.4338 58.1992 45.3762 58.1106 44.9512 58.0113 44.5278 57.9074 44.1056 57.0861 44.1925 56.266 44.3167 55.4492 44.4894 55.399 44.5002 55.3533 44.5131 55.3036 44.5239 55.3951 44.9596 55.4803 45.3965 55.5531 45.8356 55.8833 45.747 56.2208 45.6663 56.577 45.6037Z" fill="#0092A6" transform="matrix(1 0 0 1.00515 54 879.17)"/><path d="M61.6954 45.2503C61.5938 44.8219 61.4826 44.3957 61.3691 43.9724 60.4846 43.9498 59.599 43.969 58.7134 44.0345 58.8167 44.4601 58.9166 44.8874 59.0047 45.3175 59.9021 45.2509 60.7996 45.2243 61.6954 45.2503Z" fill="#0092A6" transform="matrix(1 0 0 1.00515 54 879.17)"/><path d="M65.2819 45.5794C65.1729 45.1532 65.0566 44.7293 64.9409 44.31 64.9381 44.2992 64.9353 44.2891 64.9325 44.2783 64.0277 44.148 63.1178 44.0554 62.2056 44.0057 62.3185 44.4319 62.4263 44.8608 62.5257 45.2926 63.4491 45.3463 64.368 45.4422 65.2819 45.5794Z" fill="#0092A6" transform="matrix(1 0 0 1.00515 54 879.17)"/><path d="M94.0984 66.8499C94.0984 65.8503 93.9759 64.8506 93.7456 63.8583 93.6982 63.6591 93.6463 63.4598 93.5898 63.2611 93.3556 62.4235 93.0401 61.5927 92.641 60.7725 92.6404 60.7725 92.6399 60.7731 92.6399 60.7731 92.5456 60.58 92.4468 60.387 92.3452 60.1951 91.8982 59.3631 91.3648 58.5435 90.7456 57.7398 90.7439 57.7403 90.7416 57.7414 90.7399 57.742 90.5695 57.5213 90.3956 57.3006 90.2122 57.0827 90.2133 57.0822 90.2139 57.0822 90.215 57.0816 89.5902 56.3371 88.8897 55.6096 88.1136 54.9006 88.1119 54.9017 88.1102 54.9029 88.1079 54.9034 87.8952 54.7093 87.6767 54.5173 87.4532 54.326 87.456 54.3249 87.4583 54.3232 87.4611 54.322 86.1053 53.1655 84.5503 52.0637 82.779 51.0387 78.8968 48.7928 74.3367 46.5852 69.5067 45.2475 69.5231 45.3062 69.5378 45.3632 69.5541 45.4225 69.6597 45.8046 69.7613 46.1924 69.8567 46.5835 73.9359 47.757 77.7747 49.5632 81.0789 51.475 82.9501 52.5576 84.6067 53.6842 86.0376 54.8543 86.0387 54.8538 86.0398 54.8538 86.041 54.8532 86.0946 54.8972 86.1442 54.9418 86.1979 54.9858 87.1998 55.8178 88.0837 56.6718 88.8378 57.5495 88.8389 57.549 88.84 57.549 88.8412 57.5484 88.8587 57.5687 88.8739 57.5896 88.8914 57.6099 89.0195 57.7606 89.1414 57.9125 89.2617 58.0643 89.3023 58.1157 89.3475 58.1665 89.3875 58.2184 89.3858 58.219 89.3842 58.2195 89.3825 58.2201 89.9554 58.9606 90.4419 59.7164 90.8257 60.4897 90.8269 60.4892 90.8286 60.4892 90.8297 60.4886 90.9505 60.7319 91.0617 60.9774 91.1633 61.2241 91.1633 61.2241 91.1627 61.2241 91.1627 61.2241 91.4907 62.0222 91.7068 62.8395 91.8231 63.6726 91.8248 63.6721 91.8259 63.6721 91.8276 63.6715 91.8316 63.6997 91.8322 63.7285 91.8355 63.7567 91.8621 63.9611 91.8813 64.1671 91.8942 64.3737 91.8965 64.4087 91.9021 64.4431 91.9044 64.4781 91.9027 64.4787 91.901 64.4787 91.8999 64.4792 91.9089 64.6502 91.9253 64.8196 91.9253 64.9923 91.9253 70.1225 85.8152 81.2646 78.3978 83.7234 70.3833 86.3802 59.126 80.1911 50.2586 80.1911 41.3912 80.1911 36.502 83.8464 28.733 80.3023 21.3868 76.9506 19.2052 71.7921 21.4251 67.3161 24.0419 62.0386 33.9293 62.914 40.6953 58.9996 46.9098 55.4041 48.4614 48.2831 54.7804 46.0733 54.7064 45.6178 54.6218 45.164 54.5269 44.7113 46.2364 46.9278 47.0069 53.5335 39.7205 57.7488 32.1738 62.1148 19.3113 60.3757 16.8012 66.8487 14.3233 73.2383 17.5711 80.4592 26.5221 83.7595 34.7003 86.7747 40.9837 83.8385 50.875 83.8385 60.7663 83.8385 70.3833 90.4408 79.4008 87.2156 87.381 84.3612 93.7377 73.2128 94.0832 67.3381 94.0803 67.3387 94.0775 67.3398 94.0741 67.3404 94.0826 67.1767 94.0984 67.0062 94.0984 66.8499Z" fill="#0092A6" transform="matrix(1 0 0 1.00515 54 879.17)"/><path d="M94.073 67.3415C94.0758 67.3409 94.0786 67.3398 94.082 67.3392 94.0916 67.1722 94.099 67.0079 94.099 66.8499 94.0984 67.0062 94.0826 67.1767 94.073 67.3415Z" fill="#00A7E7" transform="matrix(1 0 0 1.00515 54 879.17)"/><path d="M91.9033 64.4792C91.9016 64.4442 91.8954 64.4098 91.8931 64.3748 91.8954 64.4098 91.8965 64.4448 91.8982 64.4803 91.9004 64.4798 91.9021 64.4792 91.9033 64.4792Z" fill="#00A7E7" transform="matrix(1 0 0 1.00515 54 879.17)"/><path d="M91.8265 63.6726C91.8248 63.6732 91.8237 63.6732 91.822 63.6738 91.8259 63.702 91.831 63.7296 91.8344 63.7579 91.831 63.7296 91.8305 63.7008 91.8265 63.6726Z" fill="#00A7E7" transform="matrix(1 0 0 1.00515 54 879.17)"/><path d="M93.5898 63.2611C93.6463 63.4598 93.6982 63.6591 93.7456 63.8583 93.6993 63.6591 93.6457 63.4604 93.5898 63.2611Z" fill="#00A7E7" transform="matrix(1 0 0 1.00515 54 879.17)"/><path d="M92.641 60.7725C92.5467 60.5795 92.4485 60.387 92.3452 60.1945 92.4468 60.387 92.5456 60.5795 92.6399 60.7725 92.6404 60.7725 92.641 60.7725 92.641 60.7725Z" fill="#00A7E7" transform="matrix(1 0 0 1.00515 54 879.17)"/><path d="M91.1627 61.2246C91.0611 60.978 90.9499 60.7324 90.8291 60.4892 90.828 60.4897 90.8263 60.4897 90.8252 60.4903 90.946 60.7336 91.0606 60.9785 91.1616 61.2252 91.1622 61.2246 91.1622 61.2246 91.1627 61.2246Z" fill="#00A7E7" transform="matrix(1 0 0 1.00515 54 879.17)"/><path d="M88.8406 57.5495C88.8395 57.5501 88.8383 57.5501 88.8372 57.5507 88.8547 57.571 88.8733 57.5907 88.8908 57.6111 88.8733 57.5902 88.8581 57.5699 88.8406 57.5495Z" fill="#00A7E7" transform="matrix(1 0 0 1.00515 54 879.17)"/><path d="M89.387 58.219C89.3469 58.167 89.3023 58.1162 89.2611 58.0649 89.3023 58.1168 89.3418 58.1687 89.3819 58.2207 89.3836 58.2201 89.3853 58.2195 89.387 58.219Z" fill="#00A7E7" transform="matrix(1 0 0 1.00515 54 879.17)"/><path d="M90.7399 57.742C90.7422 57.7414 90.7439 57.7403 90.7456 57.7398 90.5751 57.5191 90.3979 57.2995 90.215 57.0816 90.2139 57.0822 90.2133 57.0822 90.2122 57.0827 90.3956 57.3006 90.5695 57.5213 90.7399 57.742Z" fill="#00A7E7" transform="matrix(1 0 0 1.00515 54 879.17)"/><path d="M86.0404 54.8538C86.0393 54.8543 86.0381 54.8543 86.037 54.8549 86.0906 54.8989 86.1442 54.9429 86.1973 54.987 86.1442 54.9424 86.0946 54.8978 86.0404 54.8538Z" fill="#00A7E7" transform="matrix(1 0 0 1.00515 54 879.17)"/><path d="M88.1074 54.9034C88.1091 54.9023 88.1108 54.9012 88.113 54.9006 87.9002 54.7064 87.6846 54.5134 87.4605 54.3226 87.4577 54.3237 87.4555 54.3254 87.4526 54.3266 87.6767 54.5173 87.8952 54.7093 88.1074 54.9034Z" fill="#00A7E7" transform="matrix(1 0 0 1.00515 54 879.17)"/><path d="M51.8323 31.8961C51.8616 34.6845 52.6186 37.4288 53.4195 40.334 54.2312 43.2776 55.0705 46.3211 55.0705 49.3888 55.0705 52.5384 53.9117 54.8255 52.6846 57.2476 51.7499 59.0933 50.783 61.0011 50.4093 63.2882 49.9262 66.2454 51.2193 69.5084 54.0511 72.474 56.0831 74.6025 58.8009 76.4652 61.7033 77.7188 64.1693 78.7839 66.636 79.345 68.7927 79.345 69.2369 79.345 69.6681 79.3213 70.083 79.2733 74.116 78.8054 75.3933 77.0274 76.7463 75.1455 77.8035 73.6746 78.8968 72.1534 81.4334 70.9308 83.5467 69.912 86.948 69.0868 90.548 68.2136 90.841 68.1424 91.1362 68.0708 91.4314 67.9985 91.5166 67.6982 91.5906 67.4053 91.6544 67.1202 91.2209 67.2264 90.7885 67.3313 90.3595 67.4352 86.7166 68.3191 83.2757 69.1545 81.0857 70.2094 78.3657 71.5201 77.16 73.1982 76.0966 74.6781 74.7955 76.4877 73.6723 78.0513 69.991 78.478 65.3185 79.0187 58.7151 76.201 54.6297 71.9214 51.9751 69.141 50.757 66.1206 51.1984 63.4169 51.5523 61.2523 52.4487 59.4822 53.3981 57.6088 54.6133 55.2094 55.8703 52.7286 55.8703 49.3882 55.8703 46.2127 55.0163 43.1156 54.1911 40.1212 53.4043 37.2674 52.6609 34.5716 52.6327 31.8877 52.5751 26.4464 55.916 22.895 60.0455 20.9098 59.5956 20.8302 59.1452 20.7631 58.6937 20.7089 54.7917 22.8882 51.7753 26.5238 51.8323 31.8961Z" fill="#00A7E7" transform="matrix(1 0 0 1.00515 54 879.17)"/><path d="M101.166 46.9487C99.9996 46.1608 98.794 45.3468 97.7549 44.4894 91.5127 39.3389 88.8259 33.3411 86.7968 28.1234 83.5433 19.7567 73.0311 16.9322 64.7942 18.5228 63.1573 18.8389 61.4939 19.3536 59.9281 20.079 60.1595 20.1173 60.3909 20.1529 60.6224 20.1975 60.8594 20.2438 61.092 20.3008 61.3268 20.3533 62.5116 19.8893 63.7364 19.5416 64.946 19.3085 66.3554 19.0364 67.8326 18.897 69.3278 18.897 76.2349 18.897 83.5066 21.8671 86.0517 28.413 88.117 33.7244 90.8557 39.8328 97.2463 45.1058 98.3153 45.988 99.5374 46.8133 100.719 47.6114 104.927 50.4539 108.901 53.1384 107.687 58.7021 106.811 62.7153 100.579 64.8388 94.0865 66.5129 94.0894 66.6252 94.0995 66.7375 94.0995 66.8504 94.0995 67.0068 94.0837 67.1773 94.0741 67.3421 100.873 65.5991 107.489 63.3661 108.469 58.8732 109.798 52.7794 105.41 49.815 101.166 46.9487Z" fill="#00A7E7" transform="matrix(1 0 0 1.00515 54 879.17)"/><path d="M55.916 34.5112C55.9409 36.8762 56.5815 39.1995 57.26 41.6593 57.9446 44.1434 58.653 46.7122 58.653 49.2968 58.653 51.944 57.6765 53.8711 56.643 55.9115 55.8506 57.4756 55.0316 59.0933 54.7138 61.0355 54.3023 63.5552 55.4007 66.3317 57.8081 68.8537 61.1507 72.3549 66.2171 74.6815 70.2902 74.6815 70.6734 74.6815 71.0482 74.6606 71.4111 74.6189 74.8469 74.2198 75.9346 72.7065 77.0866 71.1041 77.9756 69.8674 78.8951 68.5878 81.0253 67.5616 82.8056 66.7031 85.6775 66.0066 88.7176 65.2683 89.7674 65.0137 90.8387 64.7535 91.9038 64.4787 91.8892 64.2083 91.8638 63.939 91.8271 63.6721 90.7264 63.9571 89.6156 64.2275 88.529 64.4911 85.4466 65.239 82.5352 65.9456 80.6782 66.8403 78.3645 67.9556 77.3406 69.3803 76.4375 70.6373 75.3013 72.2177 74.4044 73.4663 71.3197 73.8241 67.3895 74.2768 61.8286 71.9067 58.3872 68.3016 56.1571 65.9654 55.1332 63.431 55.5034 61.1648 55.8009 59.3445 56.5567 57.8526 57.3571 56.2733 58.3877 54.2391 59.4534 52.1348 59.4534 49.2968 59.4534 46.6039 58.7304 43.982 58.0316 41.4465 57.3678 39.038 56.7401 36.7639 56.7164 34.5027 56.6498 28.1951 62.0239 24.9061 67.0751 23.9307 67.3838 23.8709 67.6971 23.8201 68.0126 23.7755 67.6333 23.5593 67.2495 23.3533 66.86 23.1586 61.5102 24.2107 55.8449 27.7385 55.916 34.5112Z" fill="#00A7E7" transform="matrix(1 0 0 1.00515 54 879.17)"/><path d="M70.7677 23.5847C76.5831 23.5847 82.7034 26.0829 84.8443 31.5891 86.593 36.086 88.9123 41.258 94.3247 45.7239 95.2307 46.4712 96.2647 47.17 97.2644 47.8451 100.804 50.2355 104.147 52.4933 103.129 57.155 102.481 60.1228 98.3086 61.863 93.5735 63.2002 93.6468 63.4576 93.7174 63.7155 93.7755 63.974 98.7511 62.5669 103.176 60.6935 103.911 57.326 105.044 52.1343 101.316 49.6168 97.7125 47.1824 96.7281 46.5175 95.7104 45.83 94.8339 45.1069 89.5693 40.763 87.3019 35.7016 85.59 31.299 82.9913 24.6154 74.944 22.098 68.1803 22.9469 68.5754 23.167 68.9654 23.3979 69.3498 23.6395 69.82 23.6067 70.2919 23.5847 70.7677 23.5847Z" fill="#00A7E7" transform="matrix(1 0 0 1.00515 54 879.17)"/><path d="M83.6381 34.7646C85.0701 38.4471 86.9695 42.6821 91.4049 46.3425 92.1477 46.9555 92.9938 47.5273 93.8122 48.0799 96.6824 50.0187 99.3934 51.8492 98.5727 55.609 98.1184 57.6901 95.4869 59.0256 92.2735 60.054 92.4051 60.2922 92.5225 60.5326 92.6393 60.7725 96.0294 59.6685 98.8273 58.1919 99.3539 55.7794 100.29 51.4897 97.2243 49.4187 94.2598 47.4161 93.4572 46.8742 92.6269 46.3132 91.914 45.725 87.627 42.1871 85.7791 38.0627 84.3838 34.474 82.7627 30.3044 78.5649 28.1161 74.2085 27.6024 74.4953 27.9016 74.7741 28.2086 75.0462 28.5225 78.7918 29.1851 82.2496 31.1923 83.6381 34.7646Z" fill="#00A7E7" transform="matrix(1 0 0 1.00515 54 879.17)"/><path d="M72.9797 27.5025C71.6409 27.441 70.3082 27.5262 69.0512 27.7684 64.6367 28.6207 59.9405 31.5264 59.9998 37.1263 60.0201 39.068 60.5693 41.0593 61.0999 42.9846 61.6581 45.0093 62.2355 47.1028 62.2355 49.2042 62.2355 51.3491 61.4419 52.916 60.6015 54.5749 59.9518 55.8579 59.2796 57.1843 59.0182 58.7828 58.6779 60.8645 59.5827 63.1539 61.5656 65.2311 64.3093 68.1058 68.4704 70.0158 71.8181 70.0158 72.1336 70.0158 72.4418 69.9989 72.7404 69.9639 75.5796 69.6343 76.4776 68.3852 77.4276 67.0627 78.1489 66.0597 78.8945 65.0222 80.6172 64.1919 82.0645 63.4943 84.4069 62.9259 86.8871 62.3236 88.2987 61.981 89.7584 61.6254 91.1622 61.2241 91.0606 60.9774 90.9494 60.7319 90.8286 60.4886 89.4739 60.8713 88.0634 61.215 86.6985 61.5464 84.1766 62.1582 81.7941 62.7362 80.2701 63.4706 78.3634 64.3895 77.5212 65.5612 76.7779 66.5953 75.8607 67.8721 75.1359 68.8802 72.6484 69.1686 69.4565 69.5445 64.9415 67.6085 62.1447 64.6785 60.339 62.787 59.5099 60.7392 59.8079 58.9115 60.0495 57.4355 60.6641 56.2214 61.3149 54.9362 62.161 53.2665 63.0354 51.5399 63.0354 49.2042 63.0354 46.9944 62.4438 44.8479 61.8715 42.7718 61.3302 40.8087 60.8194 38.9551 60.7996 37.1172 60.746 32.0096 65.1052 29.3443 69.2025 28.5535 70.1694 28.3667 71.1825 28.2713 72.2081 28.2713 72.7427 28.2713 73.2806 28.3012 73.8162 28.3537 73.5442 28.0636 73.2653 27.7797 72.9797 27.5025Z" fill="#00A7E7" transform="matrix(1 0 0 1.00515 54 879.17)"/><path d="M71.1797 32.3917C67.7191 33.06 64.0378 35.3415 64.0841 39.7413 64.0999 41.2591 64.5278 42.8102 64.9409 44.3094 65.3727 45.8746 65.8192 47.4934 65.8192 49.1122 65.8192 50.7553 65.2079 51.9621 64.5611 53.2394 64.0536 54.2408 63.5293 55.276 63.3244 56.5296 63.0557 58.1733 63.7663 59.9772 65.3242 61.6101 67.4691 63.8566 70.7253 65.3496 73.3466 65.3496 73.5938 65.3496 73.836 65.3366 74.0702 65.3095 76.3122 65.0493 77.0206 64.0643 77.7696 63.0213 78.3222 62.2519 78.894 61.4566 80.2108 60.8222 81.3256 60.2848 83.138 59.8457 85.0566 59.3795 86.497 59.0301 87.9996 58.6626 89.387 58.219 89.2131 57.9943 89.0314 57.7708 88.8406 57.549 87.5401 57.9514 86.1527 58.2901 84.868 58.6017 82.9066 59.0775 81.0541 59.5268 79.8631 60.1003 78.3628 60.8233 77.7024 61.7428 77.1199 62.5539 76.4211 63.527 75.8691 64.2946 73.9782 64.5142 71.5274 64.8055 68.0555 63.3119 65.9033 61.057 64.5221 59.6103 63.8865 58.0485 64.114 56.6583 64.2992 55.5271 64.7727 54.5913 65.2751 53.6007 65.936 52.2957 66.6196 50.9461 66.6196 49.1122 66.6196 47.385 66.159 45.7137 65.7131 44.0972 65.2948 42.5799 64.8997 41.1468 64.8845 39.7334 64.8433 35.8252 68.1882 33.7842 71.3316 33.1774 72.0772 33.0335 72.8584 32.9601 73.6492 32.9601 74.9829 32.9601 76.341 33.1718 77.5924 33.607 77.4117 33.2717 77.2255 32.9392 77.0285 32.6107 75.1111 32.096 73.0401 32.0327 71.1797 32.3917Z" fill="#00A7E7" transform="matrix(1 0 0 1.00515 54 879.17)"/><path d="M82.4319 37.9408C83.5472 40.8087 85.0267 44.1073 88.485 46.9606 89.0647 47.4392 89.7228 47.8834 90.3601 48.3135 92.5608 49.8003 94.6403 51.2046 94.0165 54.0624 93.7259 55.3945 92.1782 56.3428 90.2128 57.0827 90.3962 57.3012 90.5701 57.5213 90.7405 57.742 92.8295 56.9241 94.4461 55.8455 94.7977 54.2334 95.5372 50.8456 93.0243 49.1484 90.8077 47.6509 90.1868 47.2315 89.5445 46.7975 88.9947 46.3442 85.6848 43.6129 84.2568 40.4249 83.1781 37.6512 82.2818 35.3472 80.3841 33.8124 78.1483 32.9652 78.3527 33.3343 78.5468 33.7074 78.732 34.0851 80.383 34.8984 81.7422 36.1667 82.4319 37.9408Z" fill="#00A7E7" transform="matrix(1 0 0 1.00515 54 879.17)"/><path d="M73.3088 37.0145C70.1101 37.632 68.1402 39.6793 68.1684 42.3564 68.1803 43.4509 68.4862 44.5611 68.782 45.6353 69.0873 46.741 69.4023 47.8846 69.4023 49.0202 69.4023 50.161 68.9733 51.0076 68.5201 51.9028 68.1554 52.6231 67.7784 53.3681 67.6294 54.2769 67.4324 55.4825 67.9483 56.8011 69.0823 57.9887 70.6283 59.6081 72.9786 60.6833 74.8734 60.6833 75.0529 60.6833 75.2285 60.6737 75.3989 60.654 77.0449 60.4626 77.5862 59.7085 78.1105 58.9793 78.4955 58.4442 78.8934 57.8899 79.8033 57.4519 80.585 57.0754 81.868 56.7638 83.2266 56.4342 84.408 56.1475 85.6481 55.8455 86.7555 55.4594 86.5241 55.2556 86.2859 55.0536 86.0404 54.8526 85.0673 55.1625 84.0107 55.4205 83.0381 55.6564 81.6372 55.9968 80.3135 56.3174 79.4556 56.7305 78.3623 57.2577 77.8836 57.9238 77.4608 58.5119 76.9619 59.2062 76.6012 59.7085 75.3069 59.8587 73.5989 60.0619 71.1696 59.0154 69.6614 57.4355 68.7046 56.4336 68.2632 55.3567 68.419 54.405 68.5477 53.6176 68.8807 52.96 69.2335 52.2635 69.7099 51.3232 70.2021 50.3512 70.2021 49.0191 70.2021 47.7751 69.8725 46.579 69.5536 45.4213 69.2584 44.35 68.979 43.338 68.9682 42.3474 68.94 39.6386 71.27 38.2219 73.4601 37.7991 73.9839 37.6981 74.5336 37.6461 75.0891 37.6461 76.7672 37.6461 78.4977 38.122 79.7485 39.1306 79.6458 38.731 79.5329 38.3342 79.4104 37.9413 77.6133 36.909 75.2928 36.6313 73.3088 37.0145Z" fill="#00A7E7" transform="matrix(1 0 0 1.00515 54 879.17)"/><path d="M81.2251 41.1169C81.802 42.5997 82.8756 45.3609 85.564 47.5792 85.9806 47.923 86.4513 48.2407 86.9057 48.5484 88.5048 49.6281 89.8854 50.5606 89.4581 52.517 89.2927 53.2756 88.5081 53.8564 87.4521 54.3271 87.6762 54.5179 87.8946 54.7104 88.1068 54.9046 89.2143 54.3565 90.0288 53.6549 90.2399 52.6886 90.7823 50.2022 88.9608 48.9717 87.3533 47.8863 86.8938 47.5758 86.4598 47.2829 86.0726 46.9634 83.7403 45.0386 82.7322 42.7876 81.9702 40.8279 81.6372 39.9711 81.1105 39.2638 80.4614 38.692 80.6093 39.2446 80.7369 39.804 80.8475 40.369 80.9931 40.6021 81.1218 40.8499 81.2251 41.1169Z" fill="#00A7E7" transform="matrix(1 0 0 1.00515 54 879.17)"/></g></svg>