<svg width="275" height="275" xmlns="http://www.w3.org/2000/svg" xmlns:xlink="http://www.w3.org/1999/xlink" xml:space="preserve" overflow="hidden"><g transform="translate(-397 -507)"><path d="M397 507 672 507 672 782 397 782Z" fill="#FFFFFF"/><path d="M488.917 527.958C488.917 530.329 486.995 532.25 484.625 532.25 482.255 532.25 480.333 530.329 480.333 527.958 480.333 525.588 482.255 523.667 484.625 523.667 486.995 523.667 488.917 525.588 488.917 527.958Z" fill="#C00000"/><path d="M505.583 527.958C505.583 530.329 503.662 532.25 501.292 532.25 498.921 532.25 497 530.329 497 527.958 497 525.588 498.921 523.667 501.292 523.667 503.662 523.667 505.583 525.588 505.583 527.958Z" fill="#C00000"/><path d="M513.917 527.958C513.917 530.329 511.995 532.25 509.625 532.25 507.255 532.25 505.333 530.329 505.333 527.958 505.333 525.588 507.255 523.667 509.625 523.667 511.995 523.667 513.917 525.588 513.917 527.958Z" fill="#C00000"/><path d="M522.25 527.958C522.25 530.329 520.329 532.25 517.958 532.25 515.588 532.25 513.667 530.329 513.667 527.958 513.667 525.588 515.588 523.667 517.958 523.667 520.329 523.667 522.25 525.588 522.25 527.958Z" fill="#C00000"/><path d="M538.917 527.958C538.917 530.329 536.995 532.25 534.625 532.25 532.255 532.25 530.333 530.329 530.333 527.958 530.333 525.588 532.255 523.667 534.625 523.667 536.995 523.667 538.917 525.588 538.917 527.958Z" fill="#C00000"/><path d="M547.25 527.958C547.25 530.329 545.329 532.25 542.958 532.25 540.588 532.25 538.667 530.329 538.667 527.958 538.667 525.588 540.588 523.667 542.958 523.667 545.329 523.667 547.25 525.588 547.25 527.958Z" fill="#C00000"/><path d="M555.583 527.958C555.583 530.329 553.662 532.25 551.292 532.25 548.921 532.25 547 530.329 547 527.958 547 525.588 548.921 523.667 551.292 523.667 553.662 523.667 555.583 525.588 555.583 527.958Z" fill="#C00000"/><path d="M563.917 527.958C563.917 530.329 561.995 532.25 559.625 532.25 557.255 532.25 555.333 530.329 555.333 527.958 555.333 525.588 557.255 523.667 559.625 523.667 561.995 523.667 563.917 525.588 563.917 527.958Z" fill="#C00000"/><path d="M572.25 527.958C572.25 530.329 570.329 532.25 567.958 532.25 565.588 532.25 563.667 530.329 563.667 527.958 563.667 525.588 565.588 523.667 567.958 523.667 570.329 523.667 572.25 525.588 572.25 527.958Z" fill="#C00000"/><path d="M588.917 527.958C588.917 530.329 586.995 532.25 584.625 532.25 582.255 532.25 580.333 530.329 580.333 527.958 580.333 525.588 582.255 523.667 584.625 523.667 586.995 523.667 588.917 525.588 588.917 527.958Z" fill="#C00000"/><path d="M488.917 536.292C488.917 538.662 486.995 540.583 484.625 540.583 482.255 540.583 480.333 538.662 480.333 536.292 480.333 533.921 482.255 532 484.625 532 486.995 532 488.917 533.921 488.917 536.292Z" fill="#C00000"/><path d="M497.25 536.292C497.25 538.662 495.329 540.583 492.958 540.583 490.588 540.583 488.667 538.662 488.667 536.292 488.667 533.921 490.588 532 492.958 532 495.329 532 497.25 533.921 497.25 536.292Z" fill="#C00000"/><path d="M505.583 536.292C505.583 538.662 503.662 540.583 501.292 540.583 498.921 540.583 497 538.662 497 536.292 497 533.921 498.921 532 501.292 532 503.662 532 505.583 533.921 505.583 536.292Z" fill="#C00000"/><path d="M522.25 536.292C522.25 538.662 520.329 540.583 517.958 540.583 515.588 540.583 513.667 538.662 513.667 536.292 513.667 533.921 515.588 532 517.958 532 520.329 532 522.25 533.921 522.25 536.292Z" fill="#C00000"/><path d="M538.917 536.292C538.917 538.662 536.995 540.583 534.625 540.583 532.255 540.583 530.333 538.662 530.333 536.292 530.333 533.921 532.255 532 534.625 532 536.995 532 538.917 533.921 538.917 536.292Z" fill="#C00000"/><path d="M547.25 536.292C547.25 538.662 545.329 540.583 542.958 540.583 540.588 540.583 538.667 538.662 538.667 536.292 538.667 533.921 540.588 532 542.958 532 545.329 532 547.25 533.921 547.25 536.292Z" fill="#C00000"/><path d="M563.917 536.292C563.917 538.662 561.995 540.583 559.625 540.583 557.255 540.583 555.333 538.662 555.333 536.292 555.333 533.921 557.255 532 559.625 532 561.995 532 563.917 533.921 563.917 536.292Z" fill="#C00000"/><path d="M580.583 536.292C580.583 538.662 578.662 540.583 576.292 540.583 573.921 540.583 572 538.662 572 536.292 572 533.921 573.921 532 576.292 532 578.662 532 580.583 533.921 580.583 536.292Z" fill="#C00000"/><path d="M488.917 544.625C488.917 546.995 486.995 548.917 484.625 548.917 482.255 548.917 480.333 546.995 480.333 544.625 480.333 542.255 482.255 540.333 484.625 540.333 486.995 540.333 488.917 542.255 488.917 544.625Z" fill="#C00000"/><path d="M513.917 544.625C513.917 546.995 511.995 548.917 509.625 548.917 507.255 548.917 505.333 546.995 505.333 544.625 505.333 542.255 507.255 540.333 509.625 540.333 511.995 540.333 513.917 542.255 513.917 544.625Z" fill="#C00000"/><path d="M522.25 544.625C522.25 546.995 520.329 548.917 517.958 548.917 515.588 548.917 513.667 546.995 513.667 544.625 513.667 542.255 515.588 540.333 517.958 540.333 520.329 540.333 522.25 542.255 522.25 544.625Z" fill="#C00000"/><path d="M547.25 544.625C547.25 546.995 545.329 548.917 542.958 548.917 540.588 548.917 538.667 546.995 538.667 544.625 538.667 542.255 540.588 540.333 542.958 540.333 545.329 540.333 547.25 542.255 547.25 544.625Z" fill="#C00000"/><path d="M572.25 544.625C572.25 546.995 570.329 548.917 567.958 548.917 565.588 548.917 563.667 546.995 563.667 544.625 563.667 542.255 565.588 540.333 567.958 540.333 570.329 540.333 572.25 542.255 572.25 544.625Z" fill="#C00000"/><path d="M580.583 544.625C580.583 546.995 578.662 548.917 576.292 548.917 573.921 548.917 572 546.995 572 544.625 572 542.255 573.921 540.333 576.292 540.333 578.662 540.333 580.583 542.255 580.583 544.625Z" fill="#C00000"/><path d="M588.917 544.625C588.917 546.995 586.995 548.917 584.625 548.917 582.255 548.917 580.333 546.995 580.333 544.625 580.333 542.255 582.255 540.333 584.625 540.333 586.995 540.333 588.917 542.255 588.917 544.625Z" fill="#C00000"/><path d="M505.583 552.958C505.583 555.329 503.662 557.25 501.292 557.25 498.921 557.25 497 555.329 497 552.958 497 550.588 498.921 548.667 501.292 548.667 503.662 548.667 505.583 550.588 505.583 552.958Z" fill="#C00000"/><path d="M513.917 552.958C513.917 555.329 511.995 557.25 509.625 557.25 507.255 557.25 505.333 555.329 505.333 552.958 505.333 550.588 507.255 548.667 509.625 548.667 511.995 548.667 513.917 550.588 513.917 552.958Z" fill="#C00000"/><path d="M530.583 552.958C530.583 555.329 528.662 557.25 526.292 557.25 523.921 557.25 522 555.329 522 552.958 522 550.588 523.921 548.667 526.292 548.667 528.662 548.667 530.583 550.588 530.583 552.958Z" fill="#C00000"/><path d="M538.917 552.958C538.917 555.329 536.995 557.25 534.625 557.25 532.255 557.25 530.333 555.329 530.333 552.958 530.333 550.588 532.255 548.667 534.625 548.667 536.995 548.667 538.917 550.588 538.917 552.958Z" fill="#C00000"/><path d="M555.583 552.958C555.583 555.329 553.662 557.25 551.292 557.25 548.921 557.25 547 555.329 547 552.958 547 550.588 548.921 548.667 551.292 548.667 553.662 548.667 555.583 550.588 555.583 552.958Z" fill="#C00000"/><path d="M563.917 552.958C563.917 555.329 561.995 557.25 559.625 557.25 557.255 557.25 555.333 555.329 555.333 552.958 555.333 550.588 557.255 548.667 559.625 548.667 561.995 548.667 563.917 550.588 563.917 552.958Z" fill="#C00000"/><path d="M580.583 552.958C580.583 555.329 578.662 557.25 576.292 557.25 573.921 557.25 572 555.329 572 552.958 572 550.588 573.921 548.667 576.292 548.667 578.662 548.667 580.583 550.588 580.583 552.958Z" fill="#C00000"/><path d="M505.583 561.292C505.583 563.662 503.662 565.583 501.292 565.583 498.921 565.583 497 563.662 497 561.292 497 558.921 498.921 557 501.292 557 503.662 557 505.583 558.921 505.583 561.292Z" fill="#C00000"/><path d="M513.917 561.292C513.917 563.662 511.995 565.583 509.625 565.583 507.255 565.583 505.333 563.662 505.333 561.292 505.333 558.921 507.255 557 509.625 557 511.995 557 513.917 558.921 513.917 561.292Z" fill="#C00000"/><path d="M522.25 561.292C522.25 563.662 520.329 565.583 517.958 565.583 515.588 565.583 513.667 563.662 513.667 561.292 513.667 558.921 515.588 557 517.958 557 520.329 557 522.25 558.921 522.25 561.292Z" fill="#C00000"/><path d="M555.583 561.292C555.583 563.662 553.662 565.583 551.292 565.583 548.921 565.583 547 563.662 547 561.292 547 558.921 548.921 557 551.292 557 553.662 557 555.583 558.921 555.583 561.292Z" fill="#C00000"/><path d="M572.25 561.292C572.25 563.662 570.329 565.583 567.958 565.583 565.588 565.583 563.667 563.662 563.667 561.292 563.667 558.921 565.588 557 567.958 557 570.329 557 572.25 558.921 572.25 561.292Z" fill="#C00000"/><path d="M580.583 561.292C580.583 563.662 578.662 565.583 576.292 565.583 573.921 565.583 572 563.662 572 561.292 572 558.921 573.921 557 576.292 557 578.662 557 580.583 558.921 580.583 561.292Z" fill="#C00000"/><path d="M488.917 569.625C488.917 571.995 486.995 573.917 484.625 573.917 482.255 573.917 480.333 571.995 480.333 569.625 480.333 567.255 482.255 565.333 484.625 565.333 486.995 565.333 488.917 567.255 488.917 569.625Z" fill="#C00000"/><path d="M497.25 569.625C497.25 571.995 495.329 573.917 492.958 573.917 490.588 573.917 488.667 571.995 488.667 569.625 488.667 567.255 490.588 565.333 492.958 565.333 495.329 565.333 497.25 567.255 497.25 569.625Z" fill="#C00000"/><path d="M522.25 569.625C522.25 571.995 520.329 573.917 517.958 573.917 515.588 573.917 513.667 571.995 513.667 569.625 513.667 567.255 515.588 565.333 517.958 565.333 520.329 565.333 522.25 567.255 522.25 569.625Z" fill="#C00000"/><path d="M530.583 569.625C530.583 571.995 528.662 573.917 526.292 573.917 523.921 573.917 522 571.995 522 569.625 522 567.255 523.921 565.333 526.292 565.333 528.662 565.333 530.583 567.255 530.583 569.625Z" fill="#C00000"/><path d="M547.25 569.625C547.25 571.995 545.329 573.917 542.958 573.917 540.588 573.917 538.667 571.995 538.667 569.625 538.667 567.255 540.588 565.333 542.958 565.333 545.329 565.333 547.25 567.255 547.25 569.625Z" fill="#C00000"/><path d="M555.583 569.625C555.583 571.995 553.662 573.917 551.292 573.917 548.921 573.917 547 571.995 547 569.625 547 567.255 548.921 565.333 551.292 565.333 553.662 565.333 555.583 567.255 555.583 569.625Z" fill="#C00000"/><path d="M572.25 569.625C572.25 571.995 570.329 573.917 567.958 573.917 565.588 573.917 563.667 571.995 563.667 569.625 563.667 567.255 565.588 565.333 567.958 565.333 570.329 565.333 572.25 567.255 572.25 569.625Z" fill="#C00000"/><path d="M488.917 577.958C488.917 580.329 486.995 582.25 484.625 582.25 482.255 582.25 480.333 580.329 480.333 577.958 480.333 575.588 482.255 573.667 484.625 573.667 486.995 573.667 488.917 575.588 488.917 577.958Z" fill="#C00000"/><path d="M505.583 577.958C505.583 580.329 503.662 582.25 501.292 582.25 498.921 582.25 497 580.329 497 577.958 497 575.588 498.921 573.667 501.292 573.667 503.662 573.667 505.583 575.588 505.583 577.958Z" fill="#C00000"/><path d="M522.25 577.958C522.25 580.329 520.329 582.25 517.958 582.25 515.588 582.25 513.667 580.329 513.667 577.958 513.667 575.588 515.588 573.667 517.958 573.667 520.329 573.667 522.25 575.588 522.25 577.958Z" fill="#C00000"/><path d="M538.917 577.958C538.917 580.329 536.995 582.25 534.625 582.25 532.255 582.25 530.333 580.329 530.333 577.958 530.333 575.588 532.255 573.667 534.625 573.667 536.995 573.667 538.917 575.588 538.917 577.958Z" fill="#C00000"/><path d="M555.583 577.958C555.583 580.329 553.662 582.25 551.292 582.25 548.921 582.25 547 580.329 547 577.958 547 575.588 548.921 573.667 551.292 573.667 553.662 573.667 555.583 575.588 555.583 577.958Z" fill="#C00000"/><path d="M572.25 577.958C572.25 580.329 570.329 582.25 567.958 582.25 565.588 582.25 563.667 580.329 563.667 577.958 563.667 575.588 565.588 573.667 567.958 573.667 570.329 573.667 572.25 575.588 572.25 577.958Z" fill="#C00000"/><path d="M588.917 577.958C588.917 580.329 586.995 582.25 584.625 582.25 582.255 582.25 580.333 580.329 580.333 577.958 580.333 575.588 582.255 573.667 584.625 573.667 586.995 573.667 588.917 575.588 588.917 577.958Z" fill="#C00000"/><path d="M488.917 586.292C488.917 588.662 486.995 590.583 484.625 590.583 482.255 590.583 480.333 588.662 480.333 586.292 480.333 583.921 482.255 582 484.625 582 486.995 582 488.917 583.921 488.917 586.292Z" fill="#C00000"/><path d="M513.917 586.292C513.917 588.662 511.995 590.583 509.625 590.583 507.255 590.583 505.333 588.662 505.333 586.292 505.333 583.921 507.255 582 509.625 582 511.995 582 513.917 583.921 513.917 586.292Z" fill="#C00000"/><path d="M522.25 586.292C522.25 588.662 520.329 590.583 517.958 590.583 515.588 590.583 513.667 588.662 513.667 586.292 513.667 583.921 515.588 582 517.958 582 520.329 582 522.25 583.921 522.25 586.292Z" fill="#C00000"/><path d="M538.917 586.292C538.917 588.662 536.995 590.583 534.625 590.583 532.255 590.583 530.333 588.662 530.333 586.292 530.333 583.921 532.255 582 534.625 582 536.995 582 538.917 583.921 538.917 586.292Z" fill="#C00000"/><path d="M547.25 586.292C547.25 588.662 545.329 590.583 542.958 590.583 540.588 590.583 538.667 588.662 538.667 586.292 538.667 583.921 540.588 582 542.958 582 545.329 582 547.25 583.921 547.25 586.292Z" fill="#C00000"/><path d="M555.583 586.292C555.583 588.662 553.662 590.583 551.292 590.583 548.921 590.583 547 588.662 547 586.292 547 583.921 548.921 582 551.292 582 553.662 582 555.583 583.921 555.583 586.292Z" fill="#C00000"/><path d="M580.583 586.292C580.583 588.662 578.662 590.583 576.292 590.583 573.921 590.583 572 588.662 572 586.292 572 583.921 573.921 582 576.292 582 578.662 582 580.583 583.921 580.583 586.292Z" fill="#C00000"/><path d="M438.917 594.625C438.917 596.995 436.995 598.917 434.625 598.917 432.255 598.917 430.333 596.995 430.333 594.625 430.333 592.255 432.255 590.333 434.625 590.333 436.995 590.333 438.917 592.255 438.917 594.625Z" fill="#C00000"/><path d="M447.25 594.625C447.25 596.995 445.329 598.917 442.958 598.917 440.588 598.917 438.667 596.995 438.667 594.625 438.667 592.255 440.588 590.333 442.958 590.333 445.329 590.333 447.25 592.255 447.25 594.625Z" fill="#C00000"/><path d="M455.583 594.625C455.583 596.995 453.662 598.917 451.292 598.917 448.921 598.917 447 596.995 447 594.625 447 592.255 448.921 590.333 451.292 590.333 453.662 590.333 455.583 592.255 455.583 594.625Z" fill="#C00000"/><path d="M472.25 594.625C472.25 596.995 470.329 598.917 467.958 598.917 465.588 598.917 463.667 596.995 463.667 594.625 463.667 592.255 465.588 590.333 467.958 590.333 470.329 590.333 472.25 592.255 472.25 594.625Z" fill="#C00000"/><path d="M488.917 594.625C488.917 596.995 486.995 598.917 484.625 598.917 482.255 598.917 480.333 596.995 480.333 594.625 480.333 592.255 482.255 590.333 484.625 590.333 486.995 590.333 488.917 592.255 488.917 594.625Z" fill="#C00000"/><path d="M522.25 594.625C522.25 596.995 520.329 598.917 517.958 598.917 515.588 598.917 513.667 596.995 513.667 594.625 513.667 592.255 515.588 590.333 517.958 590.333 520.329 590.333 522.25 592.255 522.25 594.625Z" fill="#C00000"/><path d="M547.25 594.625C547.25 596.995 545.329 598.917 542.958 598.917 540.588 598.917 538.667 596.995 538.667 594.625 538.667 592.255 540.588 590.333 542.958 590.333 545.329 590.333 547.25 592.255 547.25 594.625Z" fill="#C00000"/><path d="M555.583 594.625C555.583 596.995 553.662 598.917 551.292 598.917 548.921 598.917 547 596.995 547 594.625 547 592.255 548.921 590.333 551.292 590.333 553.662 590.333 555.583 592.255 555.583 594.625Z" fill="#C00000"/><path d="M572.25 594.625C572.25 596.995 570.329 598.917 567.958 598.917 565.588 598.917 563.667 596.995 563.667 594.625 563.667 592.255 565.588 590.333 567.958 590.333 570.329 590.333 572.25 592.255 572.25 594.625Z" fill="#C00000"/><path d="M597.25 594.625C597.25 596.995 595.329 598.917 592.958 598.917 590.588 598.917 588.667 596.995 588.667 594.625 588.667 592.255 590.588 590.333 592.958 590.333 595.329 590.333 597.25 592.255 597.25 594.625Z" fill="#C00000"/><path d="M605.583 594.625C605.583 596.995 603.662 598.917 601.292 598.917 598.921 598.917 597 596.995 597 594.625 597 592.255 598.921 590.333 601.292 590.333 603.662 590.333 605.583 592.255 605.583 594.625Z" fill="#C00000"/><path d="M613.917 594.625C613.917 596.995 611.995 598.917 609.625 598.917 607.255 598.917 605.333 596.995 605.333 594.625 605.333 592.255 607.255 590.333 609.625 590.333 611.995 590.333 613.917 592.255 613.917 594.625Z" fill="#C00000"/><path d="M638.917 594.625C638.917 596.995 636.995 598.917 634.625 598.917 632.255 598.917 630.333 596.995 630.333 594.625 630.333 592.255 632.255 590.333 634.625 590.333 636.995 590.333 638.917 592.255 638.917 594.625Z" fill="#C00000"/><path d="M647.25 594.625C647.25 596.995 645.329 598.917 642.958 598.917 640.588 598.917 638.667 596.995 638.667 594.625 638.667 592.255 640.588 590.333 642.958 590.333 645.329 590.333 647.25 592.255 647.25 594.625Z" fill="#C00000"/><path d="M655.583 594.625C655.583 596.995 653.662 598.917 651.292 598.917 648.921 598.917 647 596.995 647 594.625 647 592.255 648.921 590.333 651.292 590.333 653.662 590.333 655.583 592.255 655.583 594.625Z" fill="#C00000"/><path d="M438.917 602.958C438.917 605.329 436.995 607.25 434.625 607.25 432.255 607.25 430.333 605.329 430.333 602.958 430.333 600.588 432.255 598.667 434.625 598.667 436.995 598.667 438.917 600.588 438.917 602.958Z" fill="#C00000"/><path d="M447.25 602.958C447.25 605.329 445.329 607.25 442.958 607.25 440.588 607.25 438.667 605.329 438.667 602.958 438.667 600.588 440.588 598.667 442.958 598.667 445.329 598.667 447.25 600.588 447.25 602.958Z" fill="#C00000"/><path d="M463.917 602.958C463.917 605.329 461.995 607.25 459.625 607.25 457.255 607.25 455.333 605.329 455.333 602.958 455.333 600.588 457.255 598.667 459.625 598.667 461.995 598.667 463.917 600.588 463.917 602.958Z" fill="#C00000"/><path d="M480.583 602.958C480.583 605.329 478.662 607.25 476.292 607.25 473.921 607.25 472 605.329 472 602.958 472 600.588 473.921 598.667 476.292 598.667 478.662 598.667 480.583 600.588 480.583 602.958Z" fill="#C00000"/><path d="M497.25 602.958C497.25 605.329 495.329 607.25 492.958 607.25 490.588 607.25 488.667 605.329 488.667 602.958 488.667 600.588 490.588 598.667 492.958 598.667 495.329 598.667 497.25 600.588 497.25 602.958Z" fill="#C00000"/><path d="M505.583 602.958C505.583 605.329 503.662 607.25 501.292 607.25 498.921 607.25 497 605.329 497 602.958 497 600.588 498.921 598.667 501.292 598.667 503.662 598.667 505.583 600.588 505.583 602.958Z" fill="#C00000"/><path d="M522.25 602.958C522.25 605.329 520.329 607.25 517.958 607.25 515.588 607.25 513.667 605.329 513.667 602.958 513.667 600.588 515.588 598.667 517.958 598.667 520.329 598.667 522.25 600.588 522.25 602.958Z" fill="#C00000"/><path d="M563.917 602.958C563.917 605.329 561.995 607.25 559.625 607.25 557.255 607.25 555.333 605.329 555.333 602.958 555.333 600.588 557.255 598.667 559.625 598.667 561.995 598.667 563.917 600.588 563.917 602.958Z" fill="#C00000"/><path d="M597.25 602.958C597.25 605.329 595.329 607.25 592.958 607.25 590.588 607.25 588.667 605.329 588.667 602.958 588.667 600.588 590.588 598.667 592.958 598.667 595.329 598.667 597.25 600.588 597.25 602.958Z" fill="#C00000"/><path d="M605.583 602.958C605.583 605.329 603.662 607.25 601.292 607.25 598.921 607.25 597 605.329 597 602.958 597 600.588 598.921 598.667 601.292 598.667 603.662 598.667 605.583 600.588 605.583 602.958Z" fill="#C00000"/><path d="M613.917 602.958C613.917 605.329 611.995 607.25 609.625 607.25 607.255 607.25 605.333 605.329 605.333 602.958 605.333 600.588 607.255 598.667 609.625 598.667 611.995 598.667 613.917 600.588 613.917 602.958Z" fill="#C00000"/><path d="M622.25 602.958C622.25 605.329 620.329 607.25 617.958 607.25 615.588 607.25 613.667 605.329 613.667 602.958 613.667 600.588 615.588 598.667 617.958 598.667 620.329 598.667 622.25 600.588 622.25 602.958Z" fill="#C00000"/><path d="M630.583 602.958C630.583 605.329 628.662 607.25 626.292 607.25 623.921 607.25 622 605.329 622 602.958 622 600.588 623.921 598.667 626.292 598.667 628.662 598.667 630.583 600.588 630.583 602.958Z" fill="#C00000"/><path d="M638.917 602.958C638.917 605.329 636.995 607.25 634.625 607.25 632.255 607.25 630.333 605.329 630.333 602.958 630.333 600.588 632.255 598.667 634.625 598.667 636.995 598.667 638.917 600.588 638.917 602.958Z" fill="#C00000"/><path d="M655.583 602.958C655.583 605.329 653.662 607.25 651.292 607.25 648.921 607.25 647 605.329 647 602.958 647 600.588 648.921 598.667 651.292 598.667 653.662 598.667 655.583 600.588 655.583 602.958Z" fill="#C00000"/><path d="M430.583 611.292C430.583 613.662 428.662 615.583 426.292 615.583 423.921 615.583 422 613.662 422 611.292 422 608.921 423.921 607 426.292 607 428.662 607 430.583 608.921 430.583 611.292Z" fill="#C00000"/><path d="M455.583 611.292C455.583 613.662 453.662 615.583 451.292 615.583 448.921 615.583 447 613.662 447 611.292 447 608.921 448.921 607 451.292 607 453.662 607 455.583 608.921 455.583 611.292Z" fill="#C00000"/><path d="M463.917 611.292C463.917 613.662 461.995 615.583 459.625 615.583 457.255 615.583 455.333 613.662 455.333 611.292 455.333 608.921 457.255 607 459.625 607 461.995 607 463.917 608.921 463.917 611.292Z" fill="#C00000"/><path d="M472.25 611.292C472.25 613.662 470.329 615.583 467.958 615.583 465.588 615.583 463.667 613.662 463.667 611.292 463.667 608.921 465.588 607 467.958 607 470.329 607 472.25 608.921 472.25 611.292Z" fill="#C00000"/><path d="M480.583 611.292C480.583 613.662 478.662 615.583 476.292 615.583 473.921 615.583 472 613.662 472 611.292 472 608.921 473.921 607 476.292 607 478.662 607 480.583 608.921 480.583 611.292Z" fill="#C00000"/><path d="M505.583 611.292C505.583 613.662 503.662 615.583 501.292 615.583 498.921 615.583 497 613.662 497 611.292 497 608.921 498.921 607 501.292 607 503.662 607 505.583 608.921 505.583 611.292Z" fill="#C00000"/><path d="M530.583 611.292C530.583 613.662 528.662 615.583 526.292 615.583 523.921 615.583 522 613.662 522 611.292 522 608.921 523.921 607 526.292 607 528.662 607 530.583 608.921 530.583 611.292Z" fill="#C00000"/><path d="M538.917 611.292C538.917 613.662 536.995 615.583 534.625 615.583 532.255 615.583 530.333 613.662 530.333 611.292 530.333 608.921 532.255 607 534.625 607 536.995 607 538.917 608.921 538.917 611.292Z" fill="#C00000"/><path d="M588.917 611.292C588.917 613.662 586.995 615.583 584.625 615.583 582.255 615.583 580.333 613.662 580.333 611.292 580.333 608.921 582.255 607 584.625 607 586.995 607 588.917 608.921 588.917 611.292Z" fill="#C00000"/><path d="M597.25 611.292C597.25 613.662 595.329 615.583 592.958 615.583 590.588 615.583 588.667 613.662 588.667 611.292 588.667 608.921 590.588 607 592.958 607 595.329 607 597.25 608.921 597.25 611.292Z" fill="#C00000"/><path d="M605.583 611.292C605.583 613.662 603.662 615.583 601.292 615.583 598.921 615.583 597 613.662 597 611.292 597 608.921 598.921 607 601.292 607 603.662 607 605.583 608.921 605.583 611.292Z" fill="#C00000"/><path d="M638.917 611.292C638.917 613.662 636.995 615.583 634.625 615.583 632.255 615.583 630.333 613.662 630.333 611.292 630.333 608.921 632.255 607 634.625 607 636.995 607 638.917 608.921 638.917 611.292Z" fill="#C00000"/><path d="M480.583 619.625C480.583 621.995 478.662 623.917 476.292 623.917 473.921 623.917 472 621.995 472 619.625 472 617.255 473.921 615.333 476.292 615.333 478.662 615.333 480.583 617.255 480.583 619.625Z" fill="#C00000"/><path d="M488.917 619.625C488.917 621.995 486.995 623.917 484.625 623.917 482.255 623.917 480.333 621.995 480.333 619.625 480.333 617.255 482.255 615.333 484.625 615.333 486.995 615.333 488.917 617.255 488.917 619.625Z" fill="#C00000"/><path d="M497.25 619.625C497.25 621.995 495.329 623.917 492.958 623.917 490.588 623.917 488.667 621.995 488.667 619.625 488.667 617.255 490.588 615.333 492.958 615.333 495.329 615.333 497.25 617.255 497.25 619.625Z" fill="#C00000"/><path d="M505.583 619.625C505.583 621.995 503.662 623.917 501.292 623.917 498.921 623.917 497 621.995 497 619.625 497 617.255 498.921 615.333 501.292 615.333 503.662 615.333 505.583 617.255 505.583 619.625Z" fill="#C00000"/><path d="M547.25 619.625C547.25 621.995 545.329 623.917 542.958 623.917 540.588 623.917 538.667 621.995 538.667 619.625 538.667 617.255 540.588 615.333 542.958 615.333 545.329 615.333 547.25 617.255 547.25 619.625Z" fill="#C00000"/><path d="M563.917 619.625C563.917 621.995 561.995 623.917 559.625 623.917 557.255 623.917 555.333 621.995 555.333 619.625 555.333 617.255 557.255 615.333 559.625 615.333 561.995 615.333 563.917 617.255 563.917 619.625Z" fill="#C00000"/><path d="M588.917 619.625C588.917 621.995 586.995 623.917 584.625 623.917 582.255 623.917 580.333 621.995 580.333 619.625 580.333 617.255 582.255 615.333 584.625 615.333 586.995 615.333 588.917 617.255 588.917 619.625Z" fill="#C00000"/><path d="M597.25 619.625C597.25 621.995 595.329 623.917 592.958 623.917 590.588 623.917 588.667 621.995 588.667 619.625 588.667 617.255 590.588 615.333 592.958 615.333 595.329 615.333 597.25 617.255 597.25 619.625Z" fill="#C00000"/><path d="M605.583 619.625C605.583 621.995 603.662 623.917 601.292 623.917 598.921 623.917 597 621.995 597 619.625 597 617.255 598.921 615.333 601.292 615.333 603.662 615.333 605.583 617.255 605.583 619.625Z" fill="#C00000"/><path d="M613.917 619.625C613.917 621.995 611.995 623.917 609.625 623.917 607.255 623.917 605.333 621.995 605.333 619.625 605.333 617.255 607.255 615.333 609.625 615.333 611.995 615.333 613.917 617.255 613.917 619.625Z" fill="#C00000"/><path d="M622.25 619.625C622.25 621.995 620.329 623.917 617.958 623.917 615.588 623.917 613.667 621.995 613.667 619.625 613.667 617.255 615.588 615.333 617.958 615.333 620.329 615.333 622.25 617.255 622.25 619.625Z" fill="#C00000"/><path d="M630.583 619.625C630.583 621.995 628.662 623.917 626.292 623.917 623.921 623.917 622 621.995 622 619.625 622 617.255 623.921 615.333 626.292 615.333 628.662 615.333 630.583 617.255 630.583 619.625Z" fill="#C00000"/><path d="M647.25 619.625C647.25 621.995 645.329 623.917 642.958 623.917 640.588 623.917 638.667 621.995 638.667 619.625 638.667 617.255 640.588 615.333 642.958 615.333 645.329 615.333 647.25 617.255 647.25 619.625Z" fill="#C00000"/><path d="M430.583 627.958C430.583 630.329 428.662 632.25 426.292 632.25 423.921 632.25 422 630.329 422 627.958 422 625.588 423.921 623.667 426.292 623.667 428.662 623.667 430.583 625.588 430.583 627.958Z" fill="#C00000"/><path d="M447.25 627.958C447.25 630.329 445.329 632.25 442.958 632.25 440.588 632.25 438.667 630.329 438.667 627.958 438.667 625.588 440.588 623.667 442.958 623.667 445.329 623.667 447.25 625.588 447.25 627.958Z" fill="#C00000"/><path d="M455.583 627.958C455.583 630.329 453.662 632.25 451.292 632.25 448.921 632.25 447 630.329 447 627.958 447 625.588 448.921 623.667 451.292 623.667 453.662 623.667 455.583 625.588 455.583 627.958Z" fill="#C00000"/><path d="M463.917 627.958C463.917 630.329 461.995 632.25 459.625 632.25 457.255 632.25 455.333 630.329 455.333 627.958 455.333 625.588 457.255 623.667 459.625 623.667 461.995 623.667 463.917 625.588 463.917 627.958Z" fill="#C00000"/><path d="M472.25 627.958C472.25 630.329 470.329 632.25 467.958 632.25 465.588 632.25 463.667 630.329 463.667 627.958 463.667 625.588 465.588 623.667 467.958 623.667 470.329 623.667 472.25 625.588 472.25 627.958Z" fill="#C00000"/><path d="M488.917 627.958C488.917 630.329 486.995 632.25 484.625 632.25 482.255 632.25 480.333 630.329 480.333 627.958 480.333 625.588 482.255 623.667 484.625 623.667 486.995 623.667 488.917 625.588 488.917 627.958Z" fill="#C00000"/><path d="M530.583 627.958C530.583 630.329 528.662 632.25 526.292 632.25 523.921 632.25 522 630.329 522 627.958 522 625.588 523.921 623.667 526.292 623.667 528.662 623.667 530.583 625.588 530.583 627.958Z" fill="#C00000"/><path d="M538.917 627.958C538.917 630.329 536.995 632.25 534.625 632.25 532.255 632.25 530.333 630.329 530.333 627.958 530.333 625.588 532.255 623.667 534.625 623.667 536.995 623.667 538.917 625.588 538.917 627.958Z" fill="#C00000"/><path d="M555.583 627.958C555.583 630.329 553.662 632.25 551.292 632.25 548.921 632.25 547 630.329 547 627.958 547 625.588 548.921 623.667 551.292 623.667 553.662 623.667 555.583 625.588 555.583 627.958Z" fill="#C00000"/><path d="M588.917 627.958C588.917 630.329 586.995 632.25 584.625 632.25 582.255 632.25 580.333 630.329 580.333 627.958 580.333 625.588 582.255 623.667 584.625 623.667 586.995 623.667 588.917 625.588 588.917 627.958Z" fill="#C00000"/><path d="M597.25 627.958C597.25 630.329 595.329 632.25 592.958 632.25 590.588 632.25 588.667 630.329 588.667 627.958 588.667 625.588 590.588 623.667 592.958 623.667 595.329 623.667 597.25 625.588 597.25 627.958Z" fill="#C00000"/><path d="M613.917 627.958C613.917 630.329 611.995 632.25 609.625 632.25 607.255 632.25 605.333 630.329 605.333 627.958 605.333 625.588 607.255 623.667 609.625 623.667 611.995 623.667 613.917 625.588 613.917 627.958Z" fill="#C00000"/><path d="M638.917 627.958C638.917 630.329 636.995 632.25 634.625 632.25 632.255 632.25 630.333 630.329 630.333 627.958 630.333 625.588 632.255 623.667 634.625 623.667 636.995 623.667 638.917 625.588 638.917 627.958Z" fill="#C00000"/><path d="M647.25 627.958C647.25 630.329 645.329 632.25 642.958 632.25 640.588 632.25 638.667 630.329 638.667 627.958 638.667 625.588 640.588 623.667 642.958 623.667 645.329 623.667 647.25 625.588 647.25 627.958Z" fill="#C00000"/><path d="M655.583 627.958C655.583 630.329 653.662 632.25 651.292 632.25 648.921 632.25 647 630.329 647 627.958 647 625.588 648.921 623.667 651.292 623.667 653.662 623.667 655.583 625.588 655.583 627.958Z" fill="#C00000"/><path d="M422.25 636.292C422.25 638.662 420.329 640.583 417.958 640.583 415.588 640.583 413.667 638.662 413.667 636.292 413.667 633.921 415.588 632 417.958 632 420.329 632 422.25 633.921 422.25 636.292Z" fill="#C00000"/><path d="M438.917 636.292C438.917 638.662 436.995 640.583 434.625 640.583 432.255 640.583 430.333 638.662 430.333 636.292 430.333 633.921 432.255 632 434.625 632 436.995 632 438.917 633.921 438.917 636.292Z" fill="#C00000"/><path d="M447.25 636.292C447.25 638.662 445.329 640.583 442.958 640.583 440.588 640.583 438.667 638.662 438.667 636.292 438.667 633.921 440.588 632 442.958 632 445.329 632 447.25 633.921 447.25 636.292Z" fill="#C00000"/><path d="M455.583 636.292C455.583 638.662 453.662 640.583 451.292 640.583 448.921 640.583 447 638.662 447 636.292 447 633.921 448.921 632 451.292 632 453.662 632 455.583 633.921 455.583 636.292Z" fill="#C00000"/><path d="M463.917 636.292C463.917 638.662 461.995 640.583 459.625 640.583 457.255 640.583 455.333 638.662 455.333 636.292 455.333 633.921 457.255 632 459.625 632 461.995 632 463.917 633.921 463.917 636.292Z" fill="#C00000"/><path d="M480.583 636.292C480.583 638.662 478.662 640.583 476.292 640.583 473.921 640.583 472 638.662 472 636.292 472 633.921 473.921 632 476.292 632 478.662 632 480.583 633.921 480.583 636.292Z" fill="#C00000"/><path d="M497.25 636.292C497.25 638.662 495.329 640.583 492.958 640.583 490.588 640.583 488.667 638.662 488.667 636.292 488.667 633.921 490.588 632 492.958 632 495.329 632 497.25 633.921 497.25 636.292Z" fill="#C00000"/><path d="M505.583 636.292C505.583 638.662 503.662 640.583 501.292 640.583 498.921 640.583 497 638.662 497 636.292 497 633.921 498.921 632 501.292 632 503.662 632 505.583 633.921 505.583 636.292Z" fill="#C00000"/><path d="M522.25 636.292C522.25 638.662 520.329 640.583 517.958 640.583 515.588 640.583 513.667 638.662 513.667 636.292 513.667 633.921 515.588 632 517.958 632 520.329 632 522.25 633.921 522.25 636.292Z" fill="#C00000"/><path d="M547.25 636.292C547.25 638.662 545.329 640.583 542.958 640.583 540.588 640.583 538.667 638.662 538.667 636.292 538.667 633.921 540.588 632 542.958 632 545.329 632 547.25 633.921 547.25 636.292Z" fill="#C00000"/><path d="M563.917 636.292C563.917 638.662 561.995 640.583 559.625 640.583 557.255 640.583 555.333 638.662 555.333 636.292 555.333 633.921 557.255 632 559.625 632 561.995 632 563.917 633.921 563.917 636.292Z" fill="#C00000"/><path d="M572.25 636.292C572.25 638.662 570.329 640.583 567.958 640.583 565.588 640.583 563.667 638.662 563.667 636.292 563.667 633.921 565.588 632 567.958 632 570.329 632 572.25 633.921 572.25 636.292Z" fill="#C00000"/><path d="M580.583 636.292C580.583 638.662 578.662 640.583 576.292 640.583 573.921 640.583 572 638.662 572 636.292 572 633.921 573.921 632 576.292 632 578.662 632 580.583 633.921 580.583 636.292Z" fill="#C00000"/><path d="M588.917 636.292C588.917 638.662 586.995 640.583 584.625 640.583 582.255 640.583 580.333 638.662 580.333 636.292 580.333 633.921 582.255 632 584.625 632 586.995 632 588.917 633.921 588.917 636.292Z" fill="#C00000"/><path d="M597.25 636.292C597.25 638.662 595.329 640.583 592.958 640.583 590.588 640.583 588.667 638.662 588.667 636.292 588.667 633.921 590.588 632 592.958 632 595.329 632 597.25 633.921 597.25 636.292Z" fill="#C00000"/><path d="M605.583 636.292C605.583 638.662 603.662 640.583 601.292 640.583 598.921 640.583 597 638.662 597 636.292 597 633.921 598.921 632 601.292 632 603.662 632 605.583 633.921 605.583 636.292Z" fill="#C00000"/><path d="M622.25 636.292C622.25 638.662 620.329 640.583 617.958 640.583 615.588 640.583 613.667 638.662 613.667 636.292 613.667 633.921 615.588 632 617.958 632 620.329 632 622.25 633.921 622.25 636.292Z" fill="#C00000"/><path d="M630.583 636.292C630.583 638.662 628.662 640.583 626.292 640.583 623.921 640.583 622 638.662 622 636.292 622 633.921 623.921 632 626.292 632 628.662 632 630.583 633.921 630.583 636.292Z" fill="#C00000"/><path d="M647.25 636.292C647.25 638.662 645.329 640.583 642.958 640.583 640.588 640.583 638.667 638.662 638.667 636.292 638.667 633.921 640.588 632 642.958 632 645.329 632 647.25 633.921 647.25 636.292Z" fill="#C00000"/><path d="M655.583 636.292C655.583 638.662 653.662 640.583 651.292 640.583 648.921 640.583 647 638.662 647 636.292 647 633.921 648.921 632 651.292 632 653.662 632 655.583 633.921 655.583 636.292Z" fill="#C00000"/><path d="M422.25 644.625C422.25 646.995 420.329 648.917 417.958 648.917 415.588 648.917 413.667 646.995 413.667 644.625 413.667 642.255 415.588 640.333 417.958 640.333 420.329 640.333 422.25 642.255 422.25 644.625Z" fill="#C00000"/><path d="M430.583 644.625C430.583 646.995 428.662 648.917 426.292 648.917 423.921 648.917 422 646.995 422 644.625 422 642.255 423.921 640.333 426.292 640.333 428.662 640.333 430.583 642.255 430.583 644.625Z" fill="#C00000"/><path d="M455.583 644.625C455.583 646.995 453.662 648.917 451.292 648.917 448.921 648.917 447 646.995 447 644.625 447 642.255 448.921 640.333 451.292 640.333 453.662 640.333 455.583 642.255 455.583 644.625Z" fill="#C00000"/><path d="M472.25 644.625C472.25 646.995 470.329 648.917 467.958 648.917 465.588 648.917 463.667 646.995 463.667 644.625 463.667 642.255 465.588 640.333 467.958 640.333 470.329 640.333 472.25 642.255 472.25 644.625Z" fill="#C00000"/><path d="M488.917 644.625C488.917 646.995 486.995 648.917 484.625 648.917 482.255 648.917 480.333 646.995 480.333 644.625 480.333 642.255 482.255 640.333 484.625 640.333 486.995 640.333 488.917 642.255 488.917 644.625Z" fill="#C00000"/><path d="M522.25 644.625C522.25 646.995 520.329 648.917 517.958 648.917 515.588 648.917 513.667 646.995 513.667 644.625 513.667 642.255 515.588 640.333 517.958 640.333 520.329 640.333 522.25 642.255 522.25 644.625Z" fill="#C00000"/><path d="M538.917 644.625C538.917 646.995 536.995 648.917 534.625 648.917 532.255 648.917 530.333 646.995 530.333 644.625 530.333 642.255 532.255 640.333 534.625 640.333 536.995 640.333 538.917 642.255 538.917 644.625Z" fill="#C00000"/><path d="M572.25 644.625C572.25 646.995 570.329 648.917 567.958 648.917 565.588 648.917 563.667 646.995 563.667 644.625 563.667 642.255 565.588 640.333 567.958 640.333 570.329 640.333 572.25 642.255 572.25 644.625Z" fill="#C00000"/><path d="M588.917 644.625C588.917 646.995 586.995 648.917 584.625 648.917 582.255 648.917 580.333 646.995 580.333 644.625 580.333 642.255 582.255 640.333 584.625 640.333 586.995 640.333 588.917 642.255 588.917 644.625Z" fill="#C00000"/><path d="M597.25 644.625C597.25 646.995 595.329 648.917 592.958 648.917 590.588 648.917 588.667 646.995 588.667 644.625 588.667 642.255 590.588 640.333 592.958 640.333 595.329 640.333 597.25 642.255 597.25 644.625Z" fill="#C00000"/><path d="M613.917 644.625C613.917 646.995 611.995 648.917 609.625 648.917 607.255 648.917 605.333 646.995 605.333 644.625 605.333 642.255 607.255 640.333 609.625 640.333 611.995 640.333 613.917 642.255 613.917 644.625Z" fill="#C00000"/><path d="M422.25 652.958C422.25 655.329 420.329 657.25 417.958 657.25 415.588 657.25 413.667 655.329 413.667 652.958 413.667 650.588 415.588 648.667 417.958 648.667 420.329 648.667 422.25 650.588 422.25 652.958Z" fill="#C00000"/><path d="M438.917 652.958C438.917 655.329 436.995 657.25 434.625 657.25 432.255 657.25 430.333 655.329 430.333 652.958 430.333 650.588 432.255 648.667 434.625 648.667 436.995 648.667 438.917 650.588 438.917 652.958Z" fill="#C00000"/><path d="M455.583 652.958C455.583 655.329 453.662 657.25 451.292 657.25 448.921 657.25 447 655.329 447 652.958 447 650.588 448.921 648.667 451.292 648.667 453.662 648.667 455.583 650.588 455.583 652.958Z" fill="#C00000"/><path d="M463.917 652.958C463.917 655.329 461.995 657.25 459.625 657.25 457.255 657.25 455.333 655.329 455.333 652.958 455.333 650.588 457.255 648.667 459.625 648.667 461.995 648.667 463.917 650.588 463.917 652.958Z" fill="#C00000"/><path d="M480.583 652.958C480.583 655.329 478.662 657.25 476.292 657.25 473.921 657.25 472 655.329 472 652.958 472 650.588 473.921 648.667 476.292 648.667 478.662 648.667 480.583 650.588 480.583 652.958Z" fill="#C00000"/><path d="M488.917 652.958C488.917 655.329 486.995 657.25 484.625 657.25 482.255 657.25 480.333 655.329 480.333 652.958 480.333 650.588 482.255 648.667 484.625 648.667 486.995 648.667 488.917 650.588 488.917 652.958Z" fill="#C00000"/><path d="M522.25 652.958C522.25 655.329 520.329 657.25 517.958 657.25 515.588 657.25 513.667 655.329 513.667 652.958 513.667 650.588 515.588 648.667 517.958 648.667 520.329 648.667 522.25 650.588 522.25 652.958Z" fill="#C00000"/><path d="M530.583 652.958C530.583 655.329 528.662 657.25 526.292 657.25 523.921 657.25 522 655.329 522 652.958 522 650.588 523.921 648.667 526.292 648.667 528.662 648.667 530.583 650.588 530.583 652.958Z" fill="#C00000"/><path d="M538.917 652.958C538.917 655.329 536.995 657.25 534.625 657.25 532.255 657.25 530.333 655.329 530.333 652.958 530.333 650.588 532.255 648.667 534.625 648.667 536.995 648.667 538.917 650.588 538.917 652.958Z" fill="#C00000"/><path d="M547.25 652.958C547.25 655.329 545.329 657.25 542.958 657.25 540.588 657.25 538.667 655.329 538.667 652.958 538.667 650.588 540.588 648.667 542.958 648.667 545.329 648.667 547.25 650.588 547.25 652.958Z" fill="#C00000"/><path d="M572.25 652.958C572.25 655.329 570.329 657.25 567.958 657.25 565.588 657.25 563.667 655.329 563.667 652.958 563.667 650.588 565.588 648.667 567.958 648.667 570.329 648.667 572.25 650.588 572.25 652.958Z" fill="#C00000"/><path d="M597.25 652.958C597.25 655.329 595.329 657.25 592.958 657.25 590.588 657.25 588.667 655.329 588.667 652.958 588.667 650.588 590.588 648.667 592.958 648.667 595.329 648.667 597.25 650.588 597.25 652.958Z" fill="#C00000"/><path d="M605.583 652.958C605.583 655.329 603.662 657.25 601.292 657.25 598.921 657.25 597 655.329 597 652.958 597 650.588 598.921 648.667 601.292 648.667 603.662 648.667 605.583 650.588 605.583 652.958Z" fill="#C00000"/><path d="M622.25 652.958C622.25 655.329 620.329 657.25 617.958 657.25 615.588 657.25 613.667 655.329 613.667 652.958 613.667 650.588 615.588 648.667 617.958 648.667 620.329 648.667 622.25 650.588 622.25 652.958Z" fill="#C00000"/><path d="M630.583 652.958C630.583 655.329 628.662 657.25 626.292 657.25 623.921 657.25 622 655.329 622 652.958 622 650.588 623.921 648.667 626.292 648.667 628.662 648.667 630.583 650.588 630.583 652.958Z" fill="#C00000"/><path d="M422.25 661.292C422.25 663.662 420.329 665.583 417.958 665.583 415.588 665.583 413.667 663.662 413.667 661.292 413.667 658.921 415.588 657 417.958 657 420.329 657 422.25 658.921 422.25 661.292Z" fill="#C00000"/><path d="M430.583 661.292C430.583 663.662 428.662 665.583 426.292 665.583 423.921 665.583 422 663.662 422 661.292 422 658.921 423.921 657 426.292 657 428.662 657 430.583 658.921 430.583 661.292Z" fill="#C00000"/><path d="M438.917 661.292C438.917 663.662 436.995 665.583 434.625 665.583 432.255 665.583 430.333 663.662 430.333 661.292 430.333 658.921 432.255 657 434.625 657 436.995 657 438.917 658.921 438.917 661.292Z" fill="#C00000"/><path d="M447.25 661.292C447.25 663.662 445.329 665.583 442.958 665.583 440.588 665.583 438.667 663.662 438.667 661.292 438.667 658.921 440.588 657 442.958 657 445.329 657 447.25 658.921 447.25 661.292Z" fill="#C00000"/><path d="M455.583 661.292C455.583 663.662 453.662 665.583 451.292 665.583 448.921 665.583 447 663.662 447 661.292 447 658.921 448.921 657 451.292 657 453.662 657 455.583 658.921 455.583 661.292Z" fill="#C00000"/><path d="M472.25 661.292C472.25 663.662 470.329 665.583 467.958 665.583 465.588 665.583 463.667 663.662 463.667 661.292 463.667 658.921 465.588 657 467.958 657 470.329 657 472.25 658.921 472.25 661.292Z" fill="#C00000"/><path d="M480.583 661.292C480.583 663.662 478.662 665.583 476.292 665.583 473.921 665.583 472 663.662 472 661.292 472 658.921 473.921 657 476.292 657 478.662 657 480.583 658.921 480.583 661.292Z" fill="#C00000"/><path d="M488.917 661.292C488.917 663.662 486.995 665.583 484.625 665.583 482.255 665.583 480.333 663.662 480.333 661.292 480.333 658.921 482.255 657 484.625 657 486.995 657 488.917 658.921 488.917 661.292Z" fill="#C00000"/><path d="M497.25 661.292C497.25 663.662 495.329 665.583 492.958 665.583 490.588 665.583 488.667 663.662 488.667 661.292 488.667 658.921 490.588 657 492.958 657 495.329 657 497.25 658.921 497.25 661.292Z" fill="#C00000"/><path d="M513.917 661.292C513.917 663.662 511.995 665.583 509.625 665.583 507.255 665.583 505.333 663.662 505.333 661.292 505.333 658.921 507.255 657 509.625 657 511.995 657 513.917 658.921 513.917 661.292Z" fill="#C00000"/><path d="M555.583 661.292C555.583 663.662 553.662 665.583 551.292 665.583 548.921 665.583 547 663.662 547 661.292 547 658.921 548.921 657 551.292 657 553.662 657 555.583 658.921 555.583 661.292Z" fill="#C00000"/><path d="M572.25 661.292C572.25 663.662 570.329 665.583 567.958 665.583 565.588 665.583 563.667 663.662 563.667 661.292 563.667 658.921 565.588 657 567.958 657 570.329 657 572.25 658.921 572.25 661.292Z" fill="#C00000"/><path d="M588.917 661.292C588.917 663.662 586.995 665.583 584.625 665.583 582.255 665.583 580.333 663.662 580.333 661.292 580.333 658.921 582.255 657 584.625 657 586.995 657 588.917 658.921 588.917 661.292Z" fill="#C00000"/><path d="M622.25 661.292C622.25 663.662 620.329 665.583 617.958 665.583 615.588 665.583 613.667 663.662 613.667 661.292 613.667 658.921 615.588 657 617.958 657 620.329 657 622.25 658.921 622.25 661.292Z" fill="#C00000"/><path d="M630.583 661.292C630.583 663.662 628.662 665.583 626.292 665.583 623.921 665.583 622 663.662 622 661.292 622 658.921 623.921 657 626.292 657 628.662 657 630.583 658.921 630.583 661.292Z" fill="#C00000"/><path d="M638.917 661.292C638.917 663.662 636.995 665.583 634.625 665.583 632.255 665.583 630.333 663.662 630.333 661.292 630.333 658.921 632.255 657 634.625 657 636.995 657 638.917 658.921 638.917 661.292Z" fill="#C00000"/><path d="M647.25 661.292C647.25 663.662 645.329 665.583 642.958 665.583 640.588 665.583 638.667 663.662 638.667 661.292 638.667 658.921 640.588 657 642.958 657 645.329 657 647.25 658.921 647.25 661.292Z" fill="#C00000"/><path d="M655.583 661.292C655.583 663.662 653.662 665.583 651.292 665.583 648.921 665.583 647 663.662 647 661.292 647 658.921 648.921 657 651.292 657 653.662 657 655.583 658.921 655.583 661.292Z" fill="#C00000"/><path d="M422.25 669.625C422.25 671.995 420.329 673.917 417.958 673.917 415.588 673.917 413.667 671.995 413.667 669.625 413.667 667.255 415.588 665.333 417.958 665.333 420.329 665.333 422.25 667.255 422.25 669.625Z" fill="#C00000"/><path d="M447.25 669.625C447.25 671.995 445.329 673.917 442.958 673.917 440.588 673.917 438.667 671.995 438.667 669.625 438.667 667.255 440.588 665.333 442.958 665.333 445.329 665.333 447.25 667.255 447.25 669.625Z" fill="#C00000"/><path d="M455.583 669.625C455.583 671.995 453.662 673.917 451.292 673.917 448.921 673.917 447 671.995 447 669.625 447 667.255 448.921 665.333 451.292 665.333 453.662 665.333 455.583 667.255 455.583 669.625Z" fill="#C00000"/><path d="M480.583 669.625C480.583 671.995 478.662 673.917 476.292 673.917 473.921 673.917 472 671.995 472 669.625 472 667.255 473.921 665.333 476.292 665.333 478.662 665.333 480.583 667.255 480.583 669.625Z" fill="#C00000"/><path d="M488.917 669.625C488.917 671.995 486.995 673.917 484.625 673.917 482.255 673.917 480.333 671.995 480.333 669.625 480.333 667.255 482.255 665.333 484.625 665.333 486.995 665.333 488.917 667.255 488.917 669.625Z" fill="#C00000"/><path d="M505.583 669.625C505.583 671.995 503.662 673.917 501.292 673.917 498.921 673.917 497 671.995 497 669.625 497 667.255 498.921 665.333 501.292 665.333 503.662 665.333 505.583 667.255 505.583 669.625Z" fill="#C00000"/><path d="M513.917 669.625C513.917 671.995 511.995 673.917 509.625 673.917 507.255 673.917 505.333 671.995 505.333 669.625 505.333 667.255 507.255 665.333 509.625 665.333 511.995 665.333 513.917 667.255 513.917 669.625Z" fill="#C00000"/><path d="M522.25 669.625C522.25 671.995 520.329 673.917 517.958 673.917 515.588 673.917 513.667 671.995 513.667 669.625 513.667 667.255 515.588 665.333 517.958 665.333 520.329 665.333 522.25 667.255 522.25 669.625Z" fill="#C00000"/><path d="M538.917 669.625C538.917 671.995 536.995 673.917 534.625 673.917 532.255 673.917 530.333 671.995 530.333 669.625 530.333 667.255 532.255 665.333 534.625 665.333 536.995 665.333 538.917 667.255 538.917 669.625Z" fill="#C00000"/><path d="M580.583 669.625C580.583 671.995 578.662 673.917 576.292 673.917 573.921 673.917 572 671.995 572 669.625 572 667.255 573.921 665.333 576.292 665.333 578.662 665.333 580.583 667.255 580.583 669.625Z" fill="#C00000"/><path d="M597.25 669.625C597.25 671.995 595.329 673.917 592.958 673.917 590.588 673.917 588.667 671.995 588.667 669.625 588.667 667.255 590.588 665.333 592.958 665.333 595.329 665.333 597.25 667.255 597.25 669.625Z" fill="#C00000"/><path d="M605.583 669.625C605.583 671.995 603.662 673.917 601.292 673.917 598.921 673.917 597 671.995 597 669.625 597 667.255 598.921 665.333 601.292 665.333 603.662 665.333 605.583 667.255 605.583 669.625Z" fill="#C00000"/><path d="M613.917 669.625C613.917 671.995 611.995 673.917 609.625 673.917 607.255 673.917 605.333 671.995 605.333 669.625 605.333 667.255 607.255 665.333 609.625 665.333 611.995 665.333 613.917 667.255 613.917 669.625Z" fill="#C00000"/><path d="M622.25 669.625C622.25 671.995 620.329 673.917 617.958 673.917 615.588 673.917 613.667 671.995 613.667 669.625 613.667 667.255 615.588 665.333 617.958 665.333 620.329 665.333 622.25 667.255 622.25 669.625Z" fill="#C00000"/><path d="M638.917 669.625C638.917 671.995 636.995 673.917 634.625 673.917 632.255 673.917 630.333 671.995 630.333 669.625 630.333 667.255 632.255 665.333 634.625 665.333 636.995 665.333 638.917 667.255 638.917 669.625Z" fill="#C00000"/><path d="M647.25 669.625C647.25 671.995 645.329 673.917 642.958 673.917 640.588 673.917 638.667 671.995 638.667 669.625 638.667 667.255 640.588 665.333 642.958 665.333 645.329 665.333 647.25 667.255 647.25 669.625Z" fill="#C00000"/><path d="M655.583 669.625C655.583 671.995 653.662 673.917 651.292 673.917 648.921 673.917 647 671.995 647 669.625 647 667.255 648.921 665.333 651.292 665.333 653.662 665.333 655.583 667.255 655.583 669.625Z" fill="#C00000"/><path d="M422.25 677.958C422.25 680.329 420.329 682.25 417.958 682.25 415.588 682.25 413.667 680.329 413.667 677.958 413.667 675.588 415.588 673.667 417.958 673.667 420.329 673.667 422.25 675.588 422.25 677.958Z" fill="#C00000"/><path d="M455.583 677.958C455.583 680.329 453.662 682.25 451.292 682.25 448.921 682.25 447 680.329 447 677.958 447 675.588 448.921 673.667 451.292 673.667 453.662 673.667 455.583 675.588 455.583 677.958Z" fill="#C00000"/><path d="M463.917 677.958C463.917 680.329 461.995 682.25 459.625 682.25 457.255 682.25 455.333 680.329 455.333 677.958 455.333 675.588 457.255 673.667 459.625 673.667 461.995 673.667 463.917 675.588 463.917 677.958Z" fill="#C00000"/><path d="M472.25 677.958C472.25 680.329 470.329 682.25 467.958 682.25 465.588 682.25 463.667 680.329 463.667 677.958 463.667 675.588 465.588 673.667 467.958 673.667 470.329 673.667 472.25 675.588 472.25 677.958Z" fill="#C00000"/><path d="M497.25 677.958C497.25 680.329 495.329 682.25 492.958 682.25 490.588 682.25 488.667 680.329 488.667 677.958 488.667 675.588 490.588 673.667 492.958 673.667 495.329 673.667 497.25 675.588 497.25 677.958Z" fill="#C00000"/><path d="M513.917 677.958C513.917 680.329 511.995 682.25 509.625 682.25 507.255 682.25 505.333 680.329 505.333 677.958 505.333 675.588 507.255 673.667 509.625 673.667 511.995 673.667 513.917 675.588 513.917 677.958Z" fill="#C00000"/><path d="M530.583 677.958C530.583 680.329 528.662 682.25 526.292 682.25 523.921 682.25 522 680.329 522 677.958 522 675.588 523.921 673.667 526.292 673.667 528.662 673.667 530.583 675.588 530.583 677.958Z" fill="#C00000"/><path d="M547.25 677.958C547.25 680.329 545.329 682.25 542.958 682.25 540.588 682.25 538.667 680.329 538.667 677.958 538.667 675.588 540.588 673.667 542.958 673.667 545.329 673.667 547.25 675.588 547.25 677.958Z" fill="#C00000"/><path d="M572.25 677.958C572.25 680.329 570.329 682.25 567.958 682.25 565.588 682.25 563.667 680.329 563.667 677.958 563.667 675.588 565.588 673.667 567.958 673.667 570.329 673.667 572.25 675.588 572.25 677.958Z" fill="#C00000"/><path d="M605.583 677.958C605.583 680.329 603.662 682.25 601.292 682.25 598.921 682.25 597 680.329 597 677.958 597 675.588 598.921 673.667 601.292 673.667 603.662 673.667 605.583 675.588 605.583 677.958Z" fill="#C00000"/><path d="M613.917 677.958C613.917 680.329 611.995 682.25 609.625 682.25 607.255 682.25 605.333 680.329 605.333 677.958 605.333 675.588 607.255 673.667 609.625 673.667 611.995 673.667 613.917 675.588 613.917 677.958Z" fill="#C00000"/><path d="M630.583 677.958C630.583 680.329 628.662 682.25 626.292 682.25 623.921 682.25 622 680.329 622 677.958 622 675.588 623.921 673.667 626.292 673.667 628.662 673.667 630.583 675.588 630.583 677.958Z" fill="#C00000"/><path d="M638.917 677.958C638.917 680.329 636.995 682.25 634.625 682.25 632.255 682.25 630.333 680.329 630.333 677.958 630.333 675.588 632.255 673.667 634.625 673.667 636.995 673.667 638.917 675.588 638.917 677.958Z" fill="#C00000"/><path d="M422.25 686.292C422.25 688.662 420.329 690.583 417.958 690.583 415.588 690.583 413.667 688.662 413.667 686.292 413.667 683.921 415.588 682 417.958 682 420.329 682 422.25 683.921 422.25 686.292Z" fill="#C00000"/><path d="M447.25 686.292C447.25 688.662 445.329 690.583 442.958 690.583 440.588 690.583 438.667 688.662 438.667 686.292 438.667 683.921 440.588 682 442.958 682 445.329 682 447.25 683.921 447.25 686.292Z" fill="#C00000"/><path d="M455.583 686.292C455.583 688.662 453.662 690.583 451.292 690.583 448.921 690.583 447 688.662 447 686.292 447 683.921 448.921 682 451.292 682 453.662 682 455.583 683.921 455.583 686.292Z" fill="#C00000"/><path d="M480.583 686.292C480.583 688.662 478.662 690.583 476.292 690.583 473.921 690.583 472 688.662 472 686.292 472 683.921 473.921 682 476.292 682 478.662 682 480.583 683.921 480.583 686.292Z" fill="#C00000"/><path d="M505.583 686.292C505.583 688.662 503.662 690.583 501.292 690.583 498.921 690.583 497 688.662 497 686.292 497 683.921 498.921 682 501.292 682 503.662 682 505.583 683.921 505.583 686.292Z" fill="#C00000"/><path d="M513.917 686.292C513.917 688.662 511.995 690.583 509.625 690.583 507.255 690.583 505.333 688.662 505.333 686.292 505.333 683.921 507.255 682 509.625 682 511.995 682 513.917 683.921 513.917 686.292Z" fill="#C00000"/><path d="M522.25 686.292C522.25 688.662 520.329 690.583 517.958 690.583 515.588 690.583 513.667 688.662 513.667 686.292 513.667 683.921 515.588 682 517.958 682 520.329 682 522.25 683.921 522.25 686.292Z" fill="#C00000"/><path d="M530.583 686.292C530.583 688.662 528.662 690.583 526.292 690.583 523.921 690.583 522 688.662 522 686.292 522 683.921 523.921 682 526.292 682 528.662 682 530.583 683.921 530.583 686.292Z" fill="#C00000"/><path d="M538.917 686.292C538.917 688.662 536.995 690.583 534.625 690.583 532.255 690.583 530.333 688.662 530.333 686.292 530.333 683.921 532.255 682 534.625 682 536.995 682 538.917 683.921 538.917 686.292Z" fill="#C00000"/><path d="M547.25 686.292C547.25 688.662 545.329 690.583 542.958 690.583 540.588 690.583 538.667 688.662 538.667 686.292 538.667 683.921 540.588 682 542.958 682 545.329 682 547.25 683.921 547.25 686.292Z" fill="#C00000"/><path d="M605.583 686.292C605.583 688.662 603.662 690.583 601.292 690.583 598.921 690.583 597 688.662 597 686.292 597 683.921 598.921 682 601.292 682 603.662 682 605.583 683.921 605.583 686.292Z" fill="#C00000"/><path d="M613.917 686.292C613.917 688.662 611.995 690.583 609.625 690.583 607.255 690.583 605.333 688.662 605.333 686.292 605.333 683.921 607.255 682 609.625 682 611.995 682 613.917 683.921 613.917 686.292Z" fill="#C00000"/><path d="M622.25 686.292C622.25 688.662 620.329 690.583 617.958 690.583 615.588 690.583 613.667 688.662 613.667 686.292 613.667 683.921 615.588 682 617.958 682 620.329 682 622.25 683.921 622.25 686.292Z" fill="#C00000"/><path d="M647.25 686.292C647.25 688.662 645.329 690.583 642.958 690.583 640.588 690.583 638.667 688.662 638.667 686.292 638.667 683.921 640.588 682 642.958 682 645.329 682 647.25 683.921 647.25 686.292Z" fill="#C00000"/><path d="M655.583 686.292C655.583 688.662 653.662 690.583 651.292 690.583 648.921 690.583 647 688.662 647 686.292 647 683.921 648.921 682 651.292 682 653.662 682 655.583 683.921 655.583 686.292Z" fill="#C00000"/><path d="M422.25 694.625C422.25 696.995 420.329 698.917 417.958 698.917 415.588 698.917 413.667 696.995 413.667 694.625 413.667 692.255 415.588 690.333 417.958 690.333 420.329 690.333 422.25 692.255 422.25 694.625Z" fill="#C00000"/><path d="M447.25 694.625C447.25 696.995 445.329 698.917 442.958 698.917 440.588 698.917 438.667 696.995 438.667 694.625 438.667 692.255 440.588 690.333 442.958 690.333 445.329 690.333 447.25 692.255 447.25 694.625Z" fill="#C00000"/><path d="M463.917 694.625C463.917 696.995 461.995 698.917 459.625 698.917 457.255 698.917 455.333 696.995 455.333 694.625 455.333 692.255 457.255 690.333 459.625 690.333 461.995 690.333 463.917 692.255 463.917 694.625Z" fill="#C00000"/><path d="M472.25 694.625C472.25 696.995 470.329 698.917 467.958 698.917 465.588 698.917 463.667 696.995 463.667 694.625 463.667 692.255 465.588 690.333 467.958 690.333 470.329 690.333 472.25 692.255 472.25 694.625Z" fill="#C00000"/><path d="M488.917 694.625C488.917 696.995 486.995 698.917 484.625 698.917 482.255 698.917 480.333 696.995 480.333 694.625 480.333 692.255 482.255 690.333 484.625 690.333 486.995 690.333 488.917 692.255 488.917 694.625Z" fill="#C00000"/><path d="M522.25 694.625C522.25 696.995 520.329 698.917 517.958 698.917 515.588 698.917 513.667 696.995 513.667 694.625 513.667 692.255 515.588 690.333 517.958 690.333 520.329 690.333 522.25 692.255 522.25 694.625Z" fill="#C00000"/><path d="M538.917 694.625C538.917 696.995 536.995 698.917 534.625 698.917 532.255 698.917 530.333 696.995 530.333 694.625 530.333 692.255 532.255 690.333 534.625 690.333 536.995 690.333 538.917 692.255 538.917 694.625Z" fill="#C00000"/><path d="M547.25 694.625C547.25 696.995 545.329 698.917 542.958 698.917 540.588 698.917 538.667 696.995 538.667 694.625 538.667 692.255 540.588 690.333 542.958 690.333 545.329 690.333 547.25 692.255 547.25 694.625Z" fill="#C00000"/><path d="M555.583 694.625C555.583 696.995 553.662 698.917 551.292 698.917 548.921 698.917 547 696.995 547 694.625 547 692.255 548.921 690.333 551.292 690.333 553.662 690.333 555.583 692.255 555.583 694.625Z" fill="#C00000"/><path d="M580.583 694.625C580.583 696.995 578.662 698.917 576.292 698.917 573.921 698.917 572 696.995 572 694.625 572 692.255 573.921 690.333 576.292 690.333 578.662 690.333 580.583 692.255 580.583 694.625Z" fill="#C00000"/><path d="M588.917 694.625C588.917 696.995 586.995 698.917 584.625 698.917 582.255 698.917 580.333 696.995 580.333 694.625 580.333 692.255 582.255 690.333 584.625 690.333 586.995 690.333 588.917 692.255 588.917 694.625Z" fill="#C00000"/><path d="M597.25 694.625C597.25 696.995 595.329 698.917 592.958 698.917 590.588 698.917 588.667 696.995 588.667 694.625 588.667 692.255 590.588 690.333 592.958 690.333 595.329 690.333 597.25 692.255 597.25 694.625Z" fill="#C00000"/><path d="M605.583 694.625C605.583 696.995 603.662 698.917 601.292 698.917 598.921 698.917 597 696.995 597 694.625 597 692.255 598.921 690.333 601.292 690.333 603.662 690.333 605.583 692.255 605.583 694.625Z" fill="#C00000"/><path d="M613.917 694.625C613.917 696.995 611.995 698.917 609.625 698.917 607.255 698.917 605.333 696.995 605.333 694.625 605.333 692.255 607.255 690.333 609.625 690.333 611.995 690.333 613.917 692.255 613.917 694.625Z" fill="#C00000"/><path d="M622.25 694.625C622.25 696.995 620.329 698.917 617.958 698.917 615.588 698.917 613.667 696.995 613.667 694.625 613.667 692.255 615.588 690.333 617.958 690.333 620.329 690.333 622.25 692.255 622.25 694.625Z" fill="#C00000"/><path d="M638.917 694.625C638.917 696.995 636.995 698.917 634.625 698.917 632.255 698.917 630.333 696.995 630.333 694.625 630.333 692.255 632.255 690.333 634.625 690.333 636.995 690.333 638.917 692.255 638.917 694.625Z" fill="#C00000"/><path d="M488.917 702.958C488.917 705.329 486.995 707.25 484.625 707.25 482.255 707.25 480.333 705.329 480.333 702.958 480.333 700.588 482.255 698.667 484.625 698.667 486.995 698.667 488.917 700.588 488.917 702.958Z" fill="#C00000"/><path d="M505.583 702.958C505.583 705.329 503.662 707.25 501.292 707.25 498.921 707.25 497 705.329 497 702.958 497 700.588 498.921 698.667 501.292 698.667 503.662 698.667 505.583 700.588 505.583 702.958Z" fill="#C00000"/><path d="M513.917 702.958C513.917 705.329 511.995 707.25 509.625 707.25 507.255 707.25 505.333 705.329 505.333 702.958 505.333 700.588 507.255 698.667 509.625 698.667 511.995 698.667 513.917 700.588 513.917 702.958Z" fill="#C00000"/><path d="M522.25 702.958C522.25 705.329 520.329 707.25 517.958 707.25 515.588 707.25 513.667 705.329 513.667 702.958 513.667 700.588 515.588 698.667 517.958 698.667 520.329 698.667 522.25 700.588 522.25 702.958Z" fill="#C00000"/><path d="M538.917 702.958C538.917 705.329 536.995 707.25 534.625 707.25 532.255 707.25 530.333 705.329 530.333 702.958 530.333 700.588 532.255 698.667 534.625 698.667 536.995 698.667 538.917 700.588 538.917 702.958Z" fill="#C00000"/><path d="M547.25 702.958C547.25 705.329 545.329 707.25 542.958 707.25 540.588 707.25 538.667 705.329 538.667 702.958 538.667 700.588 540.588 698.667 542.958 698.667 545.329 698.667 547.25 700.588 547.25 702.958Z" fill="#C00000"/><path d="M563.917 702.958C563.917 705.329 561.995 707.25 559.625 707.25 557.255 707.25 555.333 705.329 555.333 702.958 555.333 700.588 557.255 698.667 559.625 698.667 561.995 698.667 563.917 700.588 563.917 702.958Z" fill="#C00000"/><path d="M572.25 702.958C572.25 705.329 570.329 707.25 567.958 707.25 565.588 707.25 563.667 705.329 563.667 702.958 563.667 700.588 565.588 698.667 567.958 698.667 570.329 698.667 572.25 700.588 572.25 702.958Z" fill="#C00000"/><path d="M580.583 702.958C580.583 705.329 578.662 707.25 576.292 707.25 573.921 707.25 572 705.329 572 702.958 572 700.588 573.921 698.667 576.292 698.667 578.662 698.667 580.583 700.588 580.583 702.958Z" fill="#C00000"/><path d="M588.917 702.958C588.917 705.329 586.995 707.25 584.625 707.25 582.255 707.25 580.333 705.329 580.333 702.958 580.333 700.588 582.255 698.667 584.625 698.667 586.995 698.667 588.917 700.588 588.917 702.958Z" fill="#C00000"/><path d="M622.25 702.958C622.25 705.329 620.329 707.25 617.958 707.25 615.588 707.25 613.667 705.329 613.667 702.958 613.667 700.588 615.588 698.667 617.958 698.667 620.329 698.667 622.25 700.588 622.25 702.958Z" fill="#C00000"/><path d="M630.583 702.958C630.583 705.329 628.662 707.25 626.292 707.25 623.921 707.25 622 705.329 622 702.958 622 700.588 623.921 698.667 626.292 698.667 628.662 698.667 630.583 700.588 630.583 702.958Z" fill="#C00000"/><path d="M647.25 702.958C647.25 705.329 645.329 707.25 642.958 707.25 640.588 707.25 638.667 705.329 638.667 702.958 638.667 700.588 640.588 698.667 642.958 698.667 645.329 698.667 647.25 700.588 647.25 702.958Z" fill="#C00000"/><path d="M655.583 702.958C655.583 705.329 653.662 707.25 651.292 707.25 648.921 707.25 647 705.329 647 702.958 647 700.588 648.921 698.667 651.292 698.667 653.662 698.667 655.583 700.588 655.583 702.958Z" fill="#C00000"/><path d="M513.917 711.292C513.917 713.662 511.995 715.583 509.625 715.583 507.255 715.583 505.333 713.662 505.333 711.292 505.333 708.921 507.255 707 509.625 707 511.995 707 513.917 708.921 513.917 711.292Z" fill="#C00000"/><path d="M530.583 711.292C530.583 713.662 528.662 715.583 526.292 715.583 523.921 715.583 522 713.662 522 711.292 522 708.921 523.921 707 526.292 707 528.662 707 530.583 708.921 530.583 711.292Z" fill="#C00000"/><path d="M538.917 711.292C538.917 713.662 536.995 715.583 534.625 715.583 532.255 715.583 530.333 713.662 530.333 711.292 530.333 708.921 532.255 707 534.625 707 536.995 707 538.917 708.921 538.917 711.292Z" fill="#C00000"/><path d="M547.25 711.292C547.25 713.662 545.329 715.583 542.958 715.583 540.588 715.583 538.667 713.662 538.667 711.292 538.667 708.921 540.588 707 542.958 707 545.329 707 547.25 708.921 547.25 711.292Z" fill="#C00000"/><path d="M563.917 711.292C563.917 713.662 561.995 715.583 559.625 715.583 557.255 715.583 555.333 713.662 555.333 711.292 555.333 708.921 557.255 707 559.625 707 561.995 707 563.917 708.921 563.917 711.292Z" fill="#C00000"/><path d="M572.25 711.292C572.25 713.662 570.329 715.583 567.958 715.583 565.588 715.583 563.667 713.662 563.667 711.292 563.667 708.921 565.588 707 567.958 707 570.329 707 572.25 708.921 572.25 711.292Z" fill="#C00000"/><path d="M580.583 711.292C580.583 713.662 578.662 715.583 576.292 715.583 573.921 715.583 572 713.662 572 711.292 572 708.921 573.921 707 576.292 707 578.662 707 580.583 708.921 580.583 711.292Z" fill="#C00000"/><path d="M588.917 711.292C588.917 713.662 586.995 715.583 584.625 715.583 582.255 715.583 580.333 713.662 580.333 711.292 580.333 708.921 582.255 707 584.625 707 586.995 707 588.917 708.921 588.917 711.292Z" fill="#C00000"/><path d="M605.583 711.292C605.583 713.662 603.662 715.583 601.292 715.583 598.921 715.583 597 713.662 597 711.292 597 708.921 598.921 707 601.292 707 603.662 707 605.583 708.921 605.583 711.292Z" fill="#C00000"/><path d="M622.25 711.292C622.25 713.662 620.329 715.583 617.958 715.583 615.588 715.583 613.667 713.662 613.667 711.292 613.667 708.921 615.588 707 617.958 707 620.329 707 622.25 708.921 622.25 711.292Z" fill="#C00000"/><path d="M497.25 719.625C497.25 721.995 495.329 723.917 492.958 723.917 490.588 723.917 488.667 721.995 488.667 719.625 488.667 717.255 490.588 715.333 492.958 715.333 495.329 715.333 497.25 717.255 497.25 719.625Z" fill="#C00000"/><path d="M547.25 719.625C547.25 721.995 545.329 723.917 542.958 723.917 540.588 723.917 538.667 721.995 538.667 719.625 538.667 717.255 540.588 715.333 542.958 715.333 545.329 715.333 547.25 717.255 547.25 719.625Z" fill="#C00000"/><path d="M572.25 719.625C572.25 721.995 570.329 723.917 567.958 723.917 565.588 723.917 563.667 721.995 563.667 719.625 563.667 717.255 565.588 715.333 567.958 715.333 570.329 715.333 572.25 717.255 572.25 719.625Z" fill="#C00000"/><path d="M580.583 719.625C580.583 721.995 578.662 723.917 576.292 723.917 573.921 723.917 572 721.995 572 719.625 572 717.255 573.921 715.333 576.292 715.333 578.662 715.333 580.583 717.255 580.583 719.625Z" fill="#C00000"/><path d="M588.917 719.625C588.917 721.995 586.995 723.917 584.625 723.917 582.255 723.917 580.333 721.995 580.333 719.625 580.333 717.255 582.255 715.333 584.625 715.333 586.995 715.333 588.917 717.255 588.917 719.625Z" fill="#C00000"/><path d="M622.25 719.625C622.25 721.995 620.329 723.917 617.958 723.917 615.588 723.917 613.667 721.995 613.667 719.625 613.667 717.255 615.588 715.333 617.958 715.333 620.329 715.333 622.25 717.255 622.25 719.625Z" fill="#C00000"/><path d="M630.583 719.625C630.583 721.995 628.662 723.917 626.292 723.917 623.921 723.917 622 721.995 622 719.625 622 717.255 623.921 715.333 626.292 715.333 628.662 715.333 630.583 717.255 630.583 719.625Z" fill="#C00000"/><path d="M647.25 719.625C647.25 721.995 645.329 723.917 642.958 723.917 640.588 723.917 638.667 721.995 638.667 719.625 638.667 717.255 640.588 715.333 642.958 715.333 645.329 715.333 647.25 717.255 647.25 719.625Z" fill="#C00000"/><path d="M488.917 727.958C488.917 730.329 486.995 732.25 484.625 732.25 482.255 732.25 480.333 730.329 480.333 727.958 480.333 725.588 482.255 723.667 484.625 723.667 486.995 723.667 488.917 725.588 488.917 727.958Z" fill="#C00000"/><path d="M538.917 727.958C538.917 730.329 536.995 732.25 534.625 732.25 532.255 732.25 530.333 730.329 530.333 727.958 530.333 725.588 532.255 723.667 534.625 723.667 536.995 723.667 538.917 725.588 538.917 727.958Z" fill="#C00000"/><path d="M547.25 727.958C547.25 730.329 545.329 732.25 542.958 732.25 540.588 732.25 538.667 730.329 538.667 727.958 538.667 725.588 540.588 723.667 542.958 723.667 545.329 723.667 547.25 725.588 547.25 727.958Z" fill="#C00000"/><path d="M555.583 727.958C555.583 730.329 553.662 732.25 551.292 732.25 548.921 732.25 547 730.329 547 727.958 547 725.588 548.921 723.667 551.292 723.667 553.662 723.667 555.583 725.588 555.583 727.958Z" fill="#C00000"/><path d="M563.917 727.958C563.917 730.329 561.995 732.25 559.625 732.25 557.255 732.25 555.333 730.329 555.333 727.958 555.333 725.588 557.255 723.667 559.625 723.667 561.995 723.667 563.917 725.588 563.917 727.958Z" fill="#C00000"/><path d="M588.917 727.958C588.917 730.329 586.995 732.25 584.625 732.25 582.255 732.25 580.333 730.329 580.333 727.958 580.333 725.588 582.255 723.667 584.625 723.667 586.995 723.667 588.917 725.588 588.917 727.958Z" fill="#C00000"/><path d="M597.25 727.958C597.25 730.329 595.329 732.25 592.958 732.25 590.588 732.25 588.667 730.329 588.667 727.958 588.667 725.588 590.588 723.667 592.958 723.667 595.329 723.667 597.25 725.588 597.25 727.958Z" fill="#C00000"/><path d="M605.583 727.958C605.583 730.329 603.662 732.25 601.292 732.25 598.921 732.25 597 730.329 597 727.958 597 725.588 598.921 723.667 601.292 723.667 603.662 723.667 605.583 725.588 605.583 727.958Z" fill="#C00000"/><path d="M613.917 727.958C613.917 730.329 611.995 732.25 609.625 732.25 607.255 732.25 605.333 730.329 605.333 727.958 605.333 725.588 607.255 723.667 609.625 723.667 611.995 723.667 613.917 725.588 613.917 727.958Z" fill="#C00000"/><path d="M622.25 727.958C622.25 730.329 620.329 732.25 617.958 732.25 615.588 732.25 613.667 730.329 613.667 727.958 613.667 725.588 615.588 723.667 617.958 723.667 620.329 723.667 622.25 725.588 622.25 727.958Z" fill="#C00000"/><path d="M630.583 727.958C630.583 730.329 628.662 732.25 626.292 732.25 623.921 732.25 622 730.329 622 727.958 622 725.588 623.921 723.667 626.292 723.667 628.662 723.667 630.583 725.588 630.583 727.958Z" fill="#C00000"/><path d="M638.917 727.958C638.917 730.329 636.995 732.25 634.625 732.25 632.255 732.25 630.333 730.329 630.333 727.958 630.333 725.588 632.255 723.667 634.625 723.667 636.995 723.667 638.917 725.588 638.917 727.958Z" fill="#C00000"/><path d="M655.583 727.958C655.583 730.329 653.662 732.25 651.292 732.25 648.921 732.25 647 730.329 647 727.958 647 725.588 648.921 723.667 651.292 723.667 653.662 723.667 655.583 725.588 655.583 727.958Z" fill="#C00000"/><path d="M488.917 736.292C488.917 738.662 486.995 740.583 484.625 740.583 482.255 740.583 480.333 738.662 480.333 736.292 480.333 733.921 482.255 732 484.625 732 486.995 732 488.917 733.921 488.917 736.292Z" fill="#C00000"/><path d="M497.25 736.292C497.25 738.662 495.329 740.583 492.958 740.583 490.588 740.583 488.667 738.662 488.667 736.292 488.667 733.921 490.588 732 492.958 732 495.329 732 497.25 733.921 497.25 736.292Z" fill="#C00000"/><path d="M505.583 736.292C505.583 738.662 503.662 740.583 501.292 740.583 498.921 740.583 497 738.662 497 736.292 497 733.921 498.921 732 501.292 732 503.662 732 505.583 733.921 505.583 736.292Z" fill="#C00000"/><path d="M513.917 736.292C513.917 738.662 511.995 740.583 509.625 740.583 507.255 740.583 505.333 738.662 505.333 736.292 505.333 733.921 507.255 732 509.625 732 511.995 732 513.917 733.921 513.917 736.292Z" fill="#C00000"/><path d="M538.917 736.292C538.917 738.662 536.995 740.583 534.625 740.583 532.255 740.583 530.333 738.662 530.333 736.292 530.333 733.921 532.255 732 534.625 732 536.995 732 538.917 733.921 538.917 736.292Z" fill="#C00000"/><path d="M555.583 736.292C555.583 738.662 553.662 740.583 551.292 740.583 548.921 740.583 547 738.662 547 736.292 547 733.921 548.921 732 551.292 732 553.662 732 555.583 733.921 555.583 736.292Z" fill="#C00000"/><path d="M580.583 736.292C580.583 738.662 578.662 740.583 576.292 740.583 573.921 740.583 572 738.662 572 736.292 572 733.921 573.921 732 576.292 732 578.662 732 580.583 733.921 580.583 736.292Z" fill="#C00000"/><path d="M588.917 736.292C588.917 738.662 586.995 740.583 584.625 740.583 582.255 740.583 580.333 738.662 580.333 736.292 580.333 733.921 582.255 732 584.625 732 586.995 732 588.917 733.921 588.917 736.292Z" fill="#C00000"/><path d="M597.25 736.292C597.25 738.662 595.329 740.583 592.958 740.583 590.588 740.583 588.667 738.662 588.667 736.292 588.667 733.921 590.588 732 592.958 732 595.329 732 597.25 733.921 597.25 736.292Z" fill="#C00000"/><path d="M613.917 736.292C613.917 738.662 611.995 740.583 609.625 740.583 607.255 740.583 605.333 738.662 605.333 736.292 605.333 733.921 607.255 732 609.625 732 611.995 732 613.917 733.921 613.917 736.292Z" fill="#C00000"/><path d="M630.583 736.292C630.583 738.662 628.662 740.583 626.292 740.583 623.921 740.583 622 738.662 622 736.292 622 733.921 623.921 732 626.292 732 628.662 732 630.583 733.921 630.583 736.292Z" fill="#C00000"/><path d="M638.917 736.292C638.917 738.662 636.995 740.583 634.625 740.583 632.255 740.583 630.333 738.662 630.333 736.292 630.333 733.921 632.255 732 634.625 732 636.995 732 638.917 733.921 638.917 736.292Z" fill="#C00000"/><path d="M488.917 744.625C488.917 746.995 486.995 748.917 484.625 748.917 482.255 748.917 480.333 746.995 480.333 744.625 480.333 742.255 482.255 740.333 484.625 740.333 486.995 740.333 488.917 742.255 488.917 744.625Z" fill="#C00000"/><path d="M497.25 744.625C497.25 746.995 495.329 748.917 492.958 748.917 490.588 748.917 488.667 746.995 488.667 744.625 488.667 742.255 490.588 740.333 492.958 740.333 495.329 740.333 497.25 742.255 497.25 744.625Z" fill="#C00000"/><path d="M538.917 744.625C538.917 746.995 536.995 748.917 534.625 748.917 532.255 748.917 530.333 746.995 530.333 744.625 530.333 742.255 532.255 740.333 534.625 740.333 536.995 740.333 538.917 742.255 538.917 744.625Z" fill="#C00000"/><path d="M547.25 744.625C547.25 746.995 545.329 748.917 542.958 748.917 540.588 748.917 538.667 746.995 538.667 744.625 538.667 742.255 540.588 740.333 542.958 740.333 545.329 740.333 547.25 742.255 547.25 744.625Z" fill="#C00000"/><path d="M555.583 744.625C555.583 746.995 553.662 748.917 551.292 748.917 548.921 748.917 547 746.995 547 744.625 547 742.255 548.921 740.333 551.292 740.333 553.662 740.333 555.583 742.255 555.583 744.625Z" fill="#C00000"/><path d="M572.25 744.625C572.25 746.995 570.329 748.917 567.958 748.917 565.588 748.917 563.667 746.995 563.667 744.625 563.667 742.255 565.588 740.333 567.958 740.333 570.329 740.333 572.25 742.255 572.25 744.625Z" fill="#C00000"/><path d="M580.583 744.625C580.583 746.995 578.662 748.917 576.292 748.917 573.921 748.917 572 746.995 572 744.625 572 742.255 573.921 740.333 576.292 740.333 578.662 740.333 580.583 742.255 580.583 744.625Z" fill="#C00000"/><path d="M588.917 744.625C588.917 746.995 586.995 748.917 584.625 748.917 582.255 748.917 580.333 746.995 580.333 744.625 580.333 742.255 582.255 740.333 584.625 740.333 586.995 740.333 588.917 742.255 588.917 744.625Z" fill="#C00000"/><path d="M597.25 744.625C597.25 746.995 595.329 748.917 592.958 748.917 590.588 748.917 588.667 746.995 588.667 744.625 588.667 742.255 590.588 740.333 592.958 740.333 595.329 740.333 597.25 742.255 597.25 744.625Z" fill="#C00000"/><path d="M605.583 744.625C605.583 746.995 603.662 748.917 601.292 748.917 598.921 748.917 597 746.995 597 744.625 597 742.255 598.921 740.333 601.292 740.333 603.662 740.333 605.583 742.255 605.583 744.625Z" fill="#C00000"/><path d="M613.917 744.625C613.917 746.995 611.995 748.917 609.625 748.917 607.255 748.917 605.333 746.995 605.333 744.625 605.333 742.255 607.255 740.333 609.625 740.333 611.995 740.333 613.917 742.255 613.917 744.625Z" fill="#C00000"/><path d="M622.25 744.625C622.25 746.995 620.329 748.917 617.958 748.917 615.588 748.917 613.667 746.995 613.667 744.625 613.667 742.255 615.588 740.333 617.958 740.333 620.329 740.333 622.25 742.255 622.25 744.625Z" fill="#C00000"/><path d="M630.583 744.625C630.583 746.995 628.662 748.917 626.292 748.917 623.921 748.917 622 746.995 622 744.625 622 742.255 623.921 740.333 626.292 740.333 628.662 740.333 630.583 742.255 630.583 744.625Z" fill="#C00000"/><path d="M638.917 744.625C638.917 746.995 636.995 748.917 634.625 748.917 632.255 748.917 630.333 746.995 630.333 744.625 630.333 742.255 632.255 740.333 634.625 740.333 636.995 740.333 638.917 742.255 638.917 744.625Z" fill="#C00000"/><path d="M647.25 744.625C647.25 746.995 645.329 748.917 642.958 748.917 640.588 748.917 638.667 746.995 638.667 744.625 638.667 742.255 640.588 740.333 642.958 740.333 645.329 740.333 647.25 742.255 647.25 744.625Z" fill="#C00000"/><path d="M505.583 752.958C505.583 755.329 503.662 757.25 501.292 757.25 498.921 757.25 497 755.329 497 752.958 497 750.588 498.921 748.667 501.292 748.667 503.662 748.667 505.583 750.588 505.583 752.958Z" fill="#C00000"/><path d="M513.917 752.958C513.917 755.329 511.995 757.25 509.625 757.25 507.255 757.25 505.333 755.329 505.333 752.958 505.333 750.588 507.255 748.667 509.625 748.667 511.995 748.667 513.917 750.588 513.917 752.958Z" fill="#C00000"/><path d="M530.583 752.958C530.583 755.329 528.662 757.25 526.292 757.25 523.921 757.25 522 755.329 522 752.958 522 750.588 523.921 748.667 526.292 748.667 528.662 748.667 530.583 750.588 530.583 752.958Z" fill="#C00000"/><path d="M538.917 752.958C538.917 755.329 536.995 757.25 534.625 757.25 532.255 757.25 530.333 755.329 530.333 752.958 530.333 750.588 532.255 748.667 534.625 748.667 536.995 748.667 538.917 750.588 538.917 752.958Z" fill="#C00000"/><path d="M547.25 752.958C547.25 755.329 545.329 757.25 542.958 757.25 540.588 757.25 538.667 755.329 538.667 752.958 538.667 750.588 540.588 748.667 542.958 748.667 545.329 748.667 547.25 750.588 547.25 752.958Z" fill="#C00000"/><path d="M555.583 752.958C555.583 755.329 553.662 757.25 551.292 757.25 548.921 757.25 547 755.329 547 752.958 547 750.588 548.921 748.667 551.292 748.667 553.662 748.667 555.583 750.588 555.583 752.958Z" fill="#C00000"/><path d="M605.583 752.958C605.583 755.329 603.662 757.25 601.292 757.25 598.921 757.25 597 755.329 597 752.958 597 750.588 598.921 748.667 601.292 748.667 603.662 748.667 605.583 750.588 605.583 752.958Z" fill="#C00000"/><path d="M622.25 752.958C622.25 755.329 620.329 757.25 617.958 757.25 615.588 757.25 613.667 755.329 613.667 752.958 613.667 750.588 615.588 748.667 617.958 748.667 620.329 748.667 622.25 750.588 622.25 752.958Z" fill="#C00000"/><path d="M630.583 752.958C630.583 755.329 628.662 757.25 626.292 757.25 623.921 757.25 622 755.329 622 752.958 622 750.588 623.921 748.667 626.292 748.667 628.662 748.667 630.583 750.588 630.583 752.958Z" fill="#C00000"/><path d="M647.25 752.958C647.25 755.329 645.329 757.25 642.958 757.25 640.588 757.25 638.667 755.329 638.667 752.958 638.667 750.588 640.588 748.667 642.958 748.667 645.329 748.667 647.25 750.588 647.25 752.958Z" fill="#C00000"/><path d="M505.583 761.292C505.583 763.662 503.662 765.583 501.292 765.583 498.921 765.583 497 763.662 497 761.292 497 758.921 498.921 757 501.292 757 503.662 757 505.583 758.921 505.583 761.292Z" fill="#C00000"/><path d="M547.25 761.292C547.25 763.662 545.329 765.583 542.958 765.583 540.588 765.583 538.667 763.662 538.667 761.292 538.667 758.921 540.588 757 542.958 757 545.329 757 547.25 758.921 547.25 761.292Z" fill="#C00000"/><path d="M555.583 761.292C555.583 763.662 553.662 765.583 551.292 765.583 548.921 765.583 547 763.662 547 761.292 547 758.921 548.921 757 551.292 757 553.662 757 555.583 758.921 555.583 761.292Z" fill="#C00000"/><path d="M563.917 761.292C563.917 763.662 561.995 765.583 559.625 765.583 557.255 765.583 555.333 763.662 555.333 761.292 555.333 758.921 557.255 757 559.625 757 561.995 757 563.917 758.921 563.917 761.292Z" fill="#C00000"/><path d="M580.583 761.292C580.583 763.662 578.662 765.583 576.292 765.583 573.921 765.583 572 763.662 572 761.292 572 758.921 573.921 757 576.292 757 578.662 757 580.583 758.921 580.583 761.292Z" fill="#C00000"/><path d="M622.25 761.292C622.25 763.662 620.329 765.583 617.958 765.583 615.588 765.583 613.667 763.662 613.667 761.292 613.667 758.921 615.588 757 617.958 757 620.329 757 622.25 758.921 622.25 761.292Z" fill="#C00000"/><path d="M432.417 582 453.667 582C463.667 582 472 573.667 472 563.667L472 542.417C472 532 463.667 523.667 453.25 523.667L432 523.667C422 523.667 413.667 532 413.667 542L413.667 563.25C413.667 573.667 422 582 432.417 582ZM463.667 543.667 463.667 562C463.667 568.25 458.25 573.667 452 573.667L433.667 573.667C427 573.667 422 568.667 422 562L422 543.667C422 537.417 427.417 532 433.667 532L452 532C458.667 532 463.667 537 463.667 543.667Z" fill="#C00000"/><path d="M615.75 582 637 582C647 582 655.333 573.667 655.333 563.667L655.333 542.417C655.333 532 647 523.667 636.583 523.667L615.333 523.667C605.333 523.667 597 532 597 542L597 563.25C597 573.667 605.333 582 615.75 582ZM647 543.667 647 562C647 568.25 641.583 573.667 635.333 573.667L617 573.667C610.333 573.667 605.333 568.667 605.333 562L605.333 543.667C605.333 537.417 610.75 532 617 532L635.333 532C642 532 647 537 647 543.667Z" fill="#C00000"/><path d="M432.417 765.333 453.667 765.333C463.667 765.333 472 757 472 747L472 725.75C472 715.333 463.667 707 453.25 707L432 707C422 707 413.667 715.333 413.667 725.333L413.667 746.583C413.667 757 422 765.333 432.417 765.333ZM463.667 727 463.667 745.333C463.667 751.583 458.25 757 452 757L433.667 757C427 757 422 752 422 745.333L422 727C422 720.75 427.417 715.333 433.667 715.333L452 715.333C458.667 715.333 463.667 720.333 463.667 727Z" fill="#C00000"/><path d="M455.333 547.833C454.917 544.5 452.417 542 449.083 541.583 446.583 541.167 444.5 542.417 442.833 544.083 441.167 542.417 439.083 541.583 437 541.583 433.667 542 430.75 544.5 430.333 547.833 430.333 549.917 430.75 551.583 431.583 552.833L431.583 552.833 431.583 552.833C432 553.25 432.417 553.667 432.833 554.083L440.75 563.25C442 564.5 443.667 564.5 444.5 563.25L452 555.333C452.417 554.917 453.25 554.083 453.667 553.25 454.917 552 455.75 549.917 455.333 547.833Z" fill="#C00000"/><path d="M638.667 547.833C638.25 544.5 635.75 542 632.417 541.583 629.917 541.167 627.833 542.417 626.167 544.083 624.5 542.417 622.417 541.583 620.333 541.583 617 542 614.083 544.5 613.667 547.833 613.667 549.917 614.083 551.583 614.917 552.833L614.917 552.833 614.917 552.833C615.333 553.25 615.75 553.667 616.167 554.083L624.083 563.25C625.333 564.5 627 564.5 627.833 563.25L635.333 555.333C635.75 554.917 636.583 554.083 637 553.25 638.25 552 639.083 549.917 638.667 547.833Z" fill="#C00000"/><path d="M455.333 731.167C454.917 727.833 452.417 725.333 449.083 724.917 446.583 724.5 444.5 725.75 442.833 727.417 441.167 725.75 439.083 724.917 437 724.917 433.667 725.333 430.75 727.833 430.333 731.167 430.333 733.25 430.75 734.917 431.583 736.167L431.583 736.167 431.583 736.167C432 736.583 432.417 737 432.833 737.417L440.75 746.583C442 747.833 443.667 747.833 444.5 746.583L452 738.667C452.417 738.25 453.25 737.417 453.667 736.583 454.917 735.333 455.75 733.25 455.333 731.167Z" fill="#C00000"/></g></svg>